<?xml version="1.0" standalone="no"?><!DOCTYPE svg PUBLIC "-//W3C//DTD SVG 1.1//EN" "http://www.w3.org/Graphics/SVG/1.1/DTD/svg11.dtd"><svg xmlns:xlink="http://www.w3.org/1999/xlink" version="1.1" class="highcharts-root" style="font-family: Roboto; font-size: 12px;" xmlns="http://www.w3.org/2000/svg" width="650" height="400" viewBox="0 0 650 400" aria-label="Interactive chart" aria-hidden="false"><desc aria-hidden="true">Created with Highcharts 10.3.1</desc><defs aria-hidden="true"><clipPath id="highcharts-kb8c72h-1403-"><rect x="0" y="0" width="650" height="400" fill="none"></rect></clipPath><clipPath id="highcharts-kb8c72h-1416-"><rect x="0" y="0" width="650" height="400" fill="none"></rect></clipPath></defs><rect fill="#ffffff" class="highcharts-background" x="0" y="0" width="650" height="400" rx="0" ry="0" aria-hidden="true"></rect><g stroke-linejoin="round" class="highcharts-3d-frame highcharts-3d-frame-bottom" data-z-index="-1000" aria-hidden="true"><path fill="none" d="M 71.5816132782449 327.8001027328441 L 626.9895065942615 327.9692982431344 L 635.4660076423894 319.494088207173 L 80.05811432637279 319.32489269688267 Z" visibility="hidden"></path><path fill="none" d="M 81.01049340573854 318.3728063207691 L 635.4490884786208 318.5417065509367 L 626.9895065942615 327 L 72.5509115213793 326.83109976983235 Z"></path><path fill="none" d="M 71.5816132782449 327.8001027328441 L 80.05811432637279 319.32489269688267 L 81.01049340573854 318.3728063207691 L 72.5509115213793 326.83109976983235 Z" visibility="hidden"></path><path fill="none" d="M 635.4660076423894 319.494088207173 L 626.9895065942615 327.9692982431344 L 626.9895065942615 327 L 635.4490884786208 318.5417065509367 Z"></path><path fill="none" d="M 626.9895065942615 327.9692982431344 L 71.5816132782449 327.8001027328441 L 72.5509115213793 326.83109976983235 L 626.9895065942615 327 Z"></path><path fill="none" d="M 80.05811432637279 319.32489269688267 L 635.4660076423894 319.494088207173 L 635.4490884786208 318.5417065509367 L 81.01049340573854 318.3728063207691 Z" visibility="hidden"></path></g><g stroke-linejoin="round" class="highcharts-3d-frame highcharts-3d-frame-left" data-z-index="-1000" aria-hidden="true"><path fill="none" d="M 71.5816132782449 327.8001027328441 L 72.5509115213793 326.83109976983235 L 81.01049340573854 318.3728063207691 L 80.05811432637279 319.32489269688267 Z" visibility="hidden"></path><path fill="none" d="M 80.05811432637279 45.98278813297924 L 81.01049340573854 46.00000000000003 L 72.5509115213793 54.45829344906332 L 71.5816132782449 54.45799816894066 Z"></path><path fill="none" d="M 80.05811432637279 319.32489269688267 L 80.05811432637279 45.98278813297924 L 71.5816132782449 54.45799816894066 L 71.5816132782449 327.8001027328441 Z" visibility="hidden"></path><path fill="none" d="M 81.01049340573854 46.00000000000003 L 81.01049340573854 318.3728063207691 L 72.5509115213793 326.83109976983235 L 72.5509115213793 54.45829344906332 Z"></path><path fill="none" d="M 71.5816132782449 327.8001027328441 L 71.5816132782449 54.45799816894066 L 72.5509115213793 54.45829344906332 L 72.5509115213793 326.83109976983235 Z"></path><path fill="none" d="M 80.05811432637279 45.98278813297924 L 80.05811432637279 319.32489269688267 L 81.01049340573854 318.3728063207691 L 81.01049340573854 46.00000000000003 Z" visibility="hidden"></path></g><g stroke-linejoin="round" class="highcharts-3d-frame highcharts-3d-frame-back" data-z-index="-1000" aria-hidden="true"><path fill="none" d="M 635.4660076423894 319.494088207173 L 80.05811432637279 319.32489269688267 L 81.01049340573854 318.3728063207691 L 635.4490884786208 318.5417065509367 Z" visibility="hidden"></path><path fill="none" d="M 80.05811432637279 45.98278813297924 L 635.4660076423894 46.15198364326952 L 635.4490884786208 46.16890023016765 L 81.01049340573854 46.00000000000003 Z"></path><path fill="none" d="M 80.05811432637279 319.32489269688267 L 80.05811432637279 45.98278813297924 L 81.01049340573854 46.00000000000003 L 81.01049340573854 318.3728063207691 Z" visibility="hidden"></path><path fill="none" d="M 635.4660076423894 46.15198364326952 L 635.4660076423894 319.494088207173 L 635.4490884786208 318.5417065509367 L 635.4490884786208 46.16890023016765 Z"></path><path fill="none" d="M 81.01049340573854 46.00000000000003 L 635.4490884786208 46.16890023016765 L 635.4490884786208 318.5417065509367 L 81.01049340573854 318.3728063207691 Z"></path><path fill="none" d="M 80.05811432637279 319.32489269688267 L 635.4660076423894 319.494088207173 L 635.4660076423894 46.15198364326952 L 80.05811432637279 45.98278813297924 Z" visibility="hidden"></path></g><rect fill="none" class="highcharts-plot-background" x="68" y="46" width="572" height="281" aria-hidden="true"></rect><g class="highcharts-pane-group" data-z-index="0" aria-hidden="true"></g><g class="highcharts-grid highcharts-xaxis-grid" data-z-index="1" aria-hidden="true"><path fill="none" stroke="#e6e6e6" stroke-width="1" stroke-dasharray="none" data-z-index="1" class="highcharts-grid-line" d="M 127.05215995462294 46.01402580582689 L 127.05215995462294 318.3868321265959 M 118.59257807026378 326.8451255756592 L 127.05215995462294 318.3868321265959" opacity="1"></path><path fill="none" stroke="#e6e6e6" stroke-width="1" stroke-dasharray="none" data-z-index="1" class="highcharts-grid-line" d="M 172.60917738194016 46.02790397159242 L 172.60917738194016 318.4007102923614 M 164.14959549758103 326.8590037414247 L 172.60917738194016 318.4007102923614" opacity="1"></path><path fill="none" stroke="#e6e6e6" stroke-width="1" stroke-dasharray="none" data-z-index="1" class="highcharts-grid-line" d="M 219.13549305239184 46.04207741748061 L 219.13549305239184 318.4148837382496 M 210.67591116803268 326.87317718731293 L 219.13549305239184 318.4148837382496" opacity="1"></path><path fill="none" stroke="#e6e6e6" stroke-width="1" stroke-dasharray="none" data-z-index="1" class="highcharts-grid-line" d="M 265.6618087228435 46.0562508633688 L 265.6618087228435 318.42905718413783 M 257.2022268384843 326.8873506332011 L 265.6618087228435 318.42905718413783" opacity="1"></path><path fill="none" stroke="#e6e6e6" stroke-width="1" stroke-dasharray="none" data-z-index="1" class="highcharts-grid-line" d="M 311.21882615016074 46.07012902913431 L 311.21882615016074 318.44293534990334 M 302.75924426580156 326.9012287989666 L 311.21882615016074 318.44293534990334" opacity="1"></path><path fill="none" stroke="#e6e6e6" stroke-width="1" stroke-dasharray="none" data-z-index="1" class="highcharts-grid-line" d="M 357.7451418206124 46.0843024750225 L 357.7451418206124 318.45710879579156 M 349.2855599362532 326.9154022448548 L 357.7451418206124 318.45710879579156" opacity="1"></path><path fill="none" stroke="#e6e6e6" stroke-width="1" stroke-dasharray="none" data-z-index="1" class="highcharts-grid-line" d="M 404.27145749106404 46.098475920910715 L 404.27145749106404 318.4712822416798 M 395.81187560670486 326.92957569074304 L 404.27145749106404 318.4712822416798" opacity="1"></path><path fill="none" stroke="#e6e6e6" stroke-width="1" stroke-dasharray="none" data-z-index="1" class="highcharts-grid-line" d="M 449.8284749183813 46.11235408667622 L 449.8284749183813 318.4851604074453 M 441.3688930340221 326.94345385650854 L 449.8284749183813 318.4851604074453" opacity="1"></path><path fill="none" stroke="#e6e6e6" stroke-width="1" stroke-dasharray="none" data-z-index="1" class="highcharts-grid-line" d="M 496.3547905888329 46.12652753256441 L 496.3547905888329 318.49933385333344 M 487.89520870447376 326.9576273023967 L 496.3547905888329 318.49933385333344" opacity="1"></path><path fill="none" stroke="#e6e6e6" stroke-width="1" stroke-dasharray="none" data-z-index="1" class="highcharts-grid-line" d="M 542.8811062592846 46.14070097845263 L 542.8811062592846 318.5135072992216 M 534.4215243749254 326.9718007482849 L 542.8811062592846 318.5135072992216" opacity="1"></path><path fill="none" stroke="#e6e6e6" stroke-width="1" stroke-dasharray="none" data-z-index="1" class="highcharts-grid-line" d="M 588.4381236866018 46.15457914421813 L 588.4381236866018 318.52738546498716 M 579.9785418022427 326.9856789140505 L 588.4381236866018 318.52738546498716" opacity="1"></path><path fill="none" stroke="#e6e6e6" stroke-width="1" stroke-dasharray="none" data-z-index="1" class="highcharts-grid-line" d="M 635.9337376001879 46.16904787022898 L 635.9337376001879 318.54185419099804 M 627.4741557158287 327.0001476400613 L 635.9337376001879 318.54185419099804" opacity="1"></path><path fill="none" stroke="#e6e6e6" stroke-width="1" stroke-dasharray="none" data-z-index="1" class="highcharts-grid-line" d="M 80.52584428417128 45.99985235993873 L 80.52584428417128 318.37265868070773 M 72.0662623998121 326.83095212977105 L 80.52584428417128 318.37265868070773" opacity="1"></path></g><g class="highcharts-grid highcharts-zaxis-grid" data-z-index="1" aria-hidden="true"></g><g class="highcharts-grid highcharts-yaxis-grid" data-z-index="1" aria-hidden="true"><path fill="none" stroke="#e6e6e6" stroke-width="1" stroke-dasharray="none" data-z-index="1" class="highcharts-grid-line" d="M 81.01049340573854 318.85745544233623 L 635.4490884786208 319.0263556725039 M 72.5509115213793 327.31574889139955 L 81.01049340573854 318.85745544233623" opacity="1"></path><path fill="none" stroke="#e6e6e6" stroke-width="1" stroke-dasharray="none" data-z-index="1" class="highcharts-grid-line" d="M 81.01049340573854 264.57675382680935 L 635.4490884786208 264.74565405697695 M 72.5509115213793 273.03504727587267 L 81.01049340573854 264.57675382680935" opacity="1"></path><path fill="none" stroke="#e6e6e6" stroke-width="1" stroke-dasharray="none" data-z-index="1" class="highcharts-grid-line" d="M 81.01049340573854 210.29605221128242 L 635.4490884786208 210.46495244145004 M 72.5509115213793 218.7543456603457 L 81.01049340573854 210.29605221128242" opacity="1"></path><path fill="none" stroke="#e6e6e6" stroke-width="1" stroke-dasharray="none" data-z-index="1" class="highcharts-grid-line" d="M 81.01049340573854 155.0460523526211 L 635.4490884786208 155.2149525827887 M 72.5509115213793 163.50434580168437 L 81.01049340573854 155.0460523526211" opacity="1"></path><path fill="none" stroke="#e6e6e6" stroke-width="1" stroke-dasharray="none" data-z-index="1" class="highcharts-grid-line" d="M 81.01049340573854 100.76535073709417 L 635.4490884786208 100.93425096726176 M 72.5509115213793 109.22364418615744 L 81.01049340573854 100.76535073709417" opacity="1"></path><path fill="none" stroke="#e6e6e6" stroke-width="1" stroke-dasharray="none" data-z-index="1" class="highcharts-grid-line" d="M 81.01049340573854 45.51535087843283 L 635.4490884786208 45.68425110860045 M 72.5509115213793 53.97364432749612 L 81.01049340573854 45.51535087843283" opacity="1"></path></g><rect fill="none" class="highcharts-plot-border" data-z-index="1" x="68" y="46" width="572" height="281" aria-hidden="true"></rect><g class="highcharts-axis highcharts-xaxis" data-z-index="2" aria-hidden="true"><path fill="none" class="highcharts-axis-line" stroke="#ccd6eb" stroke-width="1" data-z-index="7" d="M 0 0"></path></g><g class="highcharts-axis highcharts-zaxis" data-z-index="2" aria-hidden="true"><path fill="none" class="highcharts-axis-line" data-z-index="7" d="M 0 0"></path></g><g class="highcharts-axis highcharts-yaxis" data-z-index="2" aria-hidden="true"><text x="30.349719929049" data-z-index="7" text-anchor="middle" transform="translate(0,0) rotate(270 30.349719929049 190.64469660944783)" class="highcharts-axis-title" style="color: rgb(102, 102, 102); fill: rgb(102, 102, 102);" y="190.64469660944783" z="12.550490273594562">Values</text><path fill="none" class="highcharts-axis-line" data-z-index="7" d="M 0 0"></path></g><g class="highcharts-series-group" data-z-index="3" aria-hidden="false"><g class="highcharts-series highcharts-series-0 highcharts-areaspline-series" data-z-index="0.1" opacity="1" transform="translate(68,46) scale(1 1)" clip-path="url(#highcharts-kb8c72h-1416-)" aria-hidden="true"><path fill="rgb(148,209,61)" fill-opacity="0.35" d="M 27.65251964941575 226.36357601526885 C 27.65251964941575 226.36357601526885 55.37444940306007 182.79237201545362 73.85573590548961 163.1871599680311 C 92.3370224079203 143.58194792060738 101.57766565913565 128.33751577815326 120.05895216156634 128.33751577815326 C 138.54023866399316 128.33751577815326 147.78088191520658 132.7095556984662 166.2621684176334 132.7095556984662 C 184.7434549200641 132.7095556984662 193.98409817127947 129.2316287890693 212.46538467371016 124.00770091538226 C 230.946671176137 118.78377304169629 240.18731442735037 106.58991633003366 258.6686009297772 106.58991633003366 C 277.14988743220795 106.58991633003366 286.39053068342326 113.13530869324049 304.87181718585396 121.85686850317734 C 323.3531036882847 130.57842831311422 332.59374693949997 150.19771537971798 351.0750334419307 150.19771537971798 C 369.5563199443575 150.19771537971798 378.7969631955709 97.90213656613034 397.2782496979977 91.3792642336125 C 415.75953620042844 84.85639190109467 425.0001794516438 91.3792642336125 443.4814659540745 84.85639190109467 C 461.9627524565052 78.33351956857683 471.2033957077206 41.29081790895226 489.6846822101512 41.29081790895226 C 508.1659687125781 41.29081790895226 535.8878984662183 43.48387537869904 535.8878984662183 43.48387537869904 L 535.8878984662183 281 C 535.8878984662183 281 508.1659687125781 281 489.6846822101512 281 C 471.2033957077206 281 461.9627524565052 281 443.4814659540745 281 C 425.0001794516438 281 415.75953620042844 281 397.2782496979977 281 C 378.7969631955709 281 369.5563199443575 281 351.0750334419307 281 C 332.59374693949997 281 323.3531036882847 281 304.87181718585396 281 C 286.39053068342326 281 277.14988743220795 281 258.6686009297772 281 C 240.18731442735037 281 230.946671176137 281 212.46538467371016 281 C 193.98409817127947 281 184.7434549200641 281 166.2621684176334 281 C 147.78088191520658 281 138.54023866399316 281 120.05895216156634 281 C 101.57766565913565 281 92.3370224079203 281 73.85573590548961 281 C 55.37444940306007 281 27.65251964941575 281 27.65251964941575 281 Z" class="highcharts-area" data-z-index="0"></path><path fill="none" d="M 27.65251964941575 226.36357601526885 C 27.65251964941575 226.36357601526885 55.37444940306007 182.79237201545362 73.85573590548961 163.1871599680311 C 92.3370224079203 143.58194792060738 101.57766565913565 128.33751577815326 120.05895216156634 128.33751577815326 C 138.54023866399316 128.33751577815326 147.78088191520658 132.7095556984662 166.2621684176334 132.7095556984662 C 184.7434549200641 132.7095556984662 193.98409817127947 129.2316287890693 212.46538467371016 124.00770091538226 C 230.946671176137 118.78377304169629 240.18731442735037 106.58991633003366 258.6686009297772 106.58991633003366 C 277.14988743220795 106.58991633003366 286.39053068342326 113.13530869324049 304.87181718585396 121.85686850317734 C 323.3531036882847 130.57842831311422 332.59374693949997 150.19771537971798 351.0750334419307 150.19771537971798 C 369.5563199443575 150.19771537971798 378.7969631955709 97.90213656613034 397.2782496979977 91.3792642336125 C 415.75953620042844 84.85639190109467 425.0001794516438 91.3792642336125 443.4814659540745 84.85639190109467 C 461.9627524565052 78.33351956857683 471.2033957077206 41.29081790895226 489.6846822101512 41.29081790895226 C 508.1659687125781 41.29081790895226 535.8878984662183 43.48387537869904 535.8878984662183 43.48387537869904" class="highcharts-graph" data-z-index="1" stroke="#94d13d" stroke-width="2" stroke-linejoin="round" stroke-linecap="round"></path></g><g class="highcharts-markers highcharts-series-0 highcharts-areaspline-series" data-z-index="0.1" opacity="1" transform="translate(68,46) scale(1 1)" clip-path="none" aria-hidden="false"><path fill="#94d13d" d="M 27 230 A 4 4 0 1 1 27.003999999333335 229.99999800000018 Z" opacity="1" class="highcharts-point" tabindex="-1" role="img" aria-label="Jan, 25 units. Monthly Review." style="outline: none;"></path><path fill="#94d13d" d="M 73 167 A 4 4 0 1 1 73.00399999933333 166.99999800000018 Z" opacity="1" class="highcharts-point" tabindex="-1" role="img" aria-label="Feb, 54 units. Monthly Review." style="outline: none;"></path><path fill="#94d13d" d="M 120 132 A 4 4 0 1 1 120.00399999933333 131.99999800000018 Z" opacity="1" class="highcharts-point" tabindex="-1" role="img" aria-label="Mar, 70 units. Monthly Review." style="outline: none;"></path><path fill="#94d13d" d="M 166 137 A 4 4 0 1 1 166.00399999933333 136.99999800000018 Z" opacity="1" class="highcharts-point" tabindex="-1" role="img" aria-label="Apr, 68 units. Monthly Review." style="outline: none;"></path><path fill="#94d13d" d="M 212 128 A 4 4 0 1 1 212.00399999933333 127.99999800000016 Z" opacity="1" class="highcharts-point" tabindex="-1" role="img" aria-label="May, 72 units. Monthly Review." style="outline: none;"></path><path fill="#94d13d" d="M 258 111 A 4 4 0 1 1 258.00399999933336 110.99999800000016 Z" opacity="1" class="highcharts-point" tabindex="-1" role="img" aria-label="Jun, 80 units. Monthly Review." style="outline: none;"></path><path fill="#94d13d" d="M 304 126 A 4 4 0 1 1 304.00399999933336 125.99999800000016 Z" opacity="1" class="highcharts-point" tabindex="-1" role="img" aria-label="Jul, 73 units. Monthly Review." style="outline: none;"></path><path fill="#94d13d" d="M 351 154 A 4 4 0 1 1 351.00399999933336 153.99999800000018 Z" opacity="1" class="highcharts-point" tabindex="-1" role="img" aria-label="Aug, 60 units. Monthly Review." style="outline: none;"></path><path fill="#94d13d" d="M 397 95 A 4 4 0 1 1 397.00399999933336 94.99999800000016 Z" opacity="1" class="highcharts-point" tabindex="-1" role="img" aria-label="Sep, 87 units. Monthly Review." style="outline: none;"></path><path fill="#94d13d" d="M 443 89 A 4 4 0 1 1 443.00399999933336 88.99999800000016 Z" opacity="1" class="highcharts-point" tabindex="-1" role="img" aria-label="Oct, 90 units. Monthly Review." style="outline: none;"></path><path fill="#94d13d" d="M 489 45 A 4 4 0 1 1 489.00399999933336 44.99999800000017 Z" opacity="1" class="highcharts-point" tabindex="-1" role="img" aria-label="Nov, 110 units. Monthly Review." style="outline: none;"></path><path fill="#94d13d" d="M 535 47 A 4 4 0 1 1 535.0039999993334 46.99999800000017 Z" opacity="1" class="highcharts-point" tabindex="-1" role="img" aria-label="Dec, 109 units. Monthly Review." style="outline: none;"></path></g></g><text x="325" text-anchor="middle" class="highcharts-title" data-z-index="4" style="color: rgb(51, 51, 51); font-size: 18px; fill: rgb(51, 51, 51);" y="24" aria-hidden="true">Monthly Performance Review</text><text x="325" text-anchor="middle" class="highcharts-subtitle" data-z-index="4" style="color: rgb(102, 102, 102); fill: rgb(102, 102, 102);" y="45" aria-hidden="true"></text><text x="10" text-anchor="start" class="highcharts-caption" data-z-index="4" style="color: rgb(102, 102, 102); fill: rgb(102, 102, 102);" y="397" aria-hidden="true"></text><g class="highcharts-legend highcharts-no-tooltip" data-z-index="7" transform="translate(265,359)" aria-hidden="true"><rect fill="none" class="highcharts-legend-box" rx="0" ry="0" x="0" y="0" width="120" height="26"></rect><g data-z-index="1"><g><g class="highcharts-legend-item highcharts-areaspline-series highcharts-color-undefined highcharts-series-0" data-z-index="1" transform="translate(8,3)"><text x="21" text-anchor="start" data-z-index="2" y="15" style="color: rgb(51, 51, 51); cursor: pointer; font-size: 12px; font-weight: bold; fill: rgb(51, 51, 51);">Monthly Review</text><rect x="2" y="4" width="12" height="12" fill="#94d13d" rx="6" ry="6" class="highcharts-point" data-z-index="3"></rect></g></g></g></g><g class="highcharts-axis-labels highcharts-xaxis-labels" data-z-index="7" aria-hidden="true"><text x="95.65251964941928" text-anchor="middle" transform="translate(0,0)" style="color: rgb(102, 102, 102); cursor: default; font-size: 11px; fill: rgb(102, 102, 102);" y="345.2576092737779" z="14.524454128694032" opacity="1">Jan</text><text x="141.85573590548637" text-anchor="middle" transform="translate(0,0)" style="color: rgb(102, 102, 102); cursor: default; font-size: 11px; fill: rgb(102, 102, 102);" y="345.2716842929585" z="13.71809681988347" opacity="1">Feb</text><text x="188.05895216156313" text-anchor="middle" transform="translate(0,0)" style="color: rgb(102, 102, 102); cursor: default; font-size: 11px; fill: rgb(102, 102, 102);" y="345.28575931213913" z="12.91173951107271" opacity="1">Mar</text><text x="234.26216841763016" text-anchor="middle" transform="translate(0,0)" style="color: rgb(102, 102, 102); cursor: default; font-size: 11px; fill: rgb(102, 102, 102);" y="345.29983433131986" z="12.10538220226212" opacity="1">Apr</text><text x="280.4653846737069" text-anchor="middle" transform="translate(0,0)" style="color: rgb(102, 102, 102); cursor: default; font-size: 11px; fill: rgb(102, 102, 102);" y="345.31390935050047" z="11.29902489345136" opacity="1">May</text><text x="326.6686009297837" text-anchor="middle" transform="translate(0,0)" style="color: rgb(102, 102, 102); cursor: default; font-size: 11px; fill: rgb(102, 102, 102);" y="345.3279843696811" z="10.4926675846406" opacity="1">Jun</text><text x="372.87181718585066" text-anchor="middle" transform="translate(0,0)" style="color: rgb(102, 102, 102); cursor: default; font-size: 11px; fill: rgb(102, 102, 102);" y="345.3420593888617" z="9.686310275830039" opacity="1">Jul</text><text x="419.0750334419275" text-anchor="middle" transform="translate(0,0)" style="color: rgb(102, 102, 102); cursor: default; font-size: 11px; fill: rgb(102, 102, 102);" y="345.35613440804235" z="8.87995296701925" opacity="1">Aug</text><text x="465.2782496980042" text-anchor="middle" transform="translate(0,0)" style="color: rgb(102, 102, 102); cursor: default; font-size: 11px; fill: rgb(102, 102, 102);" y="345.370209427223" z="8.073595658208518" opacity="1">Sep</text><text x="511.48146595407127" text-anchor="middle" transform="translate(0,0)" style="color: rgb(102, 102, 102); cursor: default; font-size: 11px; fill: rgb(102, 102, 102);" y="345.3842844464036" z="7.267238349397928" opacity="1">Oct</text><text x="557.6846822101479" text-anchor="middle" transform="translate(0,0)" style="color: rgb(102, 102, 102); cursor: default; font-size: 11px; fill: rgb(102, 102, 102);" y="345.39835946558424" z="6.460881040587168" opacity="1">Nov</text><text x="603.8878984662247" text-anchor="middle" transform="translate(0,0)" style="color: rgb(102, 102, 102); cursor: default; font-size: 11px; fill: rgb(102, 102, 102);" y="345.4124344847649" z="5.654523731776408" opacity="1">Dec</text></g><g class="highcharts-axis-labels highcharts-zaxis-labels" data-z-index="7" aria-hidden="true"></g><g class="highcharts-axis-labels highcharts-yaxis-labels" data-z-index="7" aria-hidden="true"><text x="58.00922310478313" text-anchor="end" transform="translate(0,0)" style="color: rgb(102, 102, 102); cursor: default; font-size: 11px; fill: rgb(102, 102, 102);" y="331.67759098550437" z="15.012228601943065" opacity="1">0</text><text x="58.00922310478313" text-anchor="end" transform="translate(0,0)" style="color: rgb(102, 102, 102); cursor: default; font-size: 11px; fill: rgb(102, 102, 102);" y="277.3968893699775" z="14.064755430894849" opacity="1">25</text><text x="58.00922310478313" text-anchor="end" transform="translate(0,0)" style="color: rgb(102, 102, 102); cursor: default; font-size: 11px; fill: rgb(102, 102, 102);" y="222.14688951131615" z="13.10036309607787" opacity="1">50</text><text x="58.00922310478313" text-anchor="end" transform="translate(0,0)" style="color: rgb(102, 102, 102); cursor: default; font-size: 11px; fill: rgb(102, 102, 102);" y="167.8661878957892" z="12.152889925029655" opacity="1">75</text><text x="58.00922310478313" text-anchor="end" transform="translate(0,0)" style="color: rgb(102, 102, 102); cursor: default; font-size: 11px; fill: rgb(102, 102, 102);" y="113.5854862802623" z="11.205416753981439" opacity="1">100</text><text x="58.00922310478313" text-anchor="end" transform="translate(0,0)" style="color: rgb(102, 102, 102); cursor: default; font-size: 11px; fill: rgb(102, 102, 102);" y="59.30478466473535" z="10.257943582933194" opacity="1">125</text></g><g stroke-linejoin="round" class="highcharts-3d-frame highcharts-3d-frame-top" data-z-index="1000" aria-hidden="true"><path fill="none" d="M 80.05811432637279 45.98278813297924 L 635.4660076423894 46.15198364326952 L 626.9895065942615 54.62719367923094 L 71.5816132782449 54.45799816894066 Z" visibility="hidden"></path><path fill="none" d="M 72.5509115213793 54.45829344906332 L 626.9895065942615 54.62719367923094 L 635.4490884786208 46.16890023016765 L 81.01049340573854 46.00000000000003 Z" visibility="hidden"></path><path fill="none" d="M 80.05811432637279 45.98278813297924 L 71.5816132782449 54.45799816894066 L 72.5509115213793 54.45829344906332 L 81.01049340573854 46.00000000000003 Z" visibility="hidden"></path><path fill="none" d="M 626.9895065942615 54.62719367923094 L 635.4660076423894 46.15198364326952 L 635.4490884786208 46.16890023016765 L 626.9895065942615 54.62719367923094 Z" visibility="hidden"></path><path fill="none" d="M 71.5816132782449 54.45799816894066 L 626.9895065942615 54.62719367923094 L 626.9895065942615 54.62719367923094 L 72.5509115213793 54.45829344906332 Z" visibility="hidden"></path><path fill="none" d="M 635.4660076423894 46.15198364326952 L 80.05811432637279 45.98278813297924 L 81.01049340573854 46.00000000000003 L 635.4490884786208 46.16890023016765 Z" visibility="hidden"></path></g><g stroke-linejoin="round" class="highcharts-3d-frame highcharts-3d-frame-right" data-z-index="1000" aria-hidden="true"><path fill="none" d="M 635.4660076423894 319.494088207173 L 635.4490884786208 318.5417065509367 L 626.9895065942615 327 L 626.9895065942615 327.9692982431344 Z" visibility="hidden"></path><path fill="none" d="M 626.9895065942615 54.62719367923094 L 626.9895065942615 54.62719367923094 L 635.4490884786208 46.16890023016765 L 635.4660076423894 46.15198364326952 Z" visibility="hidden"></path><path fill="none" d="M 626.9895065942615 54.62719367923094 L 626.9895065942615 327 L 635.4490884786208 318.5417065509367 L 635.4490884786208 46.16890023016765 Z" visibility="hidden"></path><path fill="none" d="M 626.9895065942615 327.9692982431344 L 626.9895065942615 54.62719367923094 L 635.4660076423894 46.15198364326952 L 635.4660076423894 319.494088207173 Z" visibility="hidden"></path><path fill="none" d="M 626.9895065942615 54.62719367923094 L 626.9895065942615 327.9692982431344 L 626.9895065942615 327 L 626.9895065942615 54.62719367923094 Z" visibility="hidden"></path><path fill="none" d="M 635.4660076423894 319.494088207173 L 635.4660076423894 46.15198364326952 L 635.4490884786208 46.16890023016765 L 635.4490884786208 318.5417065509367 Z" visibility="hidden"></path></g><g stroke-linejoin="round" class="highcharts-3d-frame highcharts-3d-frame-front" data-z-index="1000" aria-hidden="true"><path fill="none" d="M 71.5816132782449 327.8001027328441 L 626.9895065942615 327.9692982431344 L 626.9895065942615 327 L 72.5509115213793 326.83109976983235 Z" visibility="hidden"></path><path fill="none" d="M 626.9895065942615 54.62719367923094 L 71.5816132782449 54.45799816894066 L 72.5509115213793 54.45829344906332 L 626.9895065942615 54.62719367923094 Z" visibility="hidden"></path><path fill="none" d="M 71.5816132782449 54.45799816894066 L 71.5816132782449 327.8001027328441 L 72.5509115213793 326.83109976983235 L 72.5509115213793 54.45829344906332 Z" visibility="hidden"></path><path fill="none" d="M 626.9895065942615 327.9692982431344 L 626.9895065942615 54.62719367923094 L 626.9895065942615 54.62719367923094 L 626.9895065942615 327 Z" visibility="hidden"></path><path fill="none" d="M 626.9895065942615 54.62719367923094 L 72.5509115213793 54.45829344906332 L 72.5509115213793 326.83109976983235 L 626.9895065942615 327 Z" visibility="hidden"></path><path fill="none" d="M 626.9895065942615 327.9692982431344 L 71.5816132782449 327.8001027328441 L 71.5816132782449 54.45799816894066 L 626.9895065942615 54.62719367923094 Z" visibility="hidden"></path></g></svg>