<?xml version="1.0" standalone="no"?><!DOCTYPE svg PUBLIC "-//W3C//DTD SVG 1.1//EN" "http://www.w3.org/Graphics/SVG/1.1/DTD/svg11.dtd"><svg xmlns:xlink="http://www.w3.org/1999/xlink" version="1.1" class="highcharts-root" style="font-family: Roboto; font-size: 12px;" xmlns="http://www.w3.org/2000/svg" width="650" height="400" viewBox="0 0 650 400" aria-label="Interactive chart" aria-hidden="false"><desc aria-hidden="true">Created with Highcharts 10.3.1</desc><defs aria-hidden="true"><clipPath id="highcharts-o9u6zjk-8838-"><rect x="0" y="0" width="650" height="400" fill="none"></rect></clipPath><clipPath id="highcharts-o9u6zjk-8851-"><rect x="0" y="0" width="650" height="400" fill="none"></rect></clipPath></defs><rect fill="#ffffff" class="highcharts-background" x="0" y="0" width="650" height="400" rx="0" ry="0" aria-hidden="true"></rect><g stroke-linejoin="round" class="highcharts-3d-frame highcharts-3d-frame-bottom" data-z-index="-1000" aria-hidden="true"><path fill="none" d="M 71.61257681398973 326.8000150118927 L 626.9595768136849 326.96919197207626 L 635.4351485227345 318.49491113365025 L 80.08814852303937 318.3257341734667 Z" visibility="hidden"></path><path fill="none" d="M 81.0404231863152 317.37375218135185 L 635.418231213934 317.5426338937864 L 626.9595768136849 326 L 72.581768786066 325.83111828756546 Z"></path><path fill="none" d="M 71.61257681398973 326.8000150118927 L 80.08814852303937 318.3257341734667 L 81.0404231863152 317.37375218135185 L 72.581768786066 325.83111828756546 Z" visibility="hidden"></path><path fill="none" d="M 635.4351485227345 318.49491113365025 L 626.9595768136849 326.96919197207626 L 626.9595768136849 326 L 635.418231213934 317.5426338937864 Z"></path><path fill="none" d="M 626.9595768136849 326.96919197207626 L 71.61257681398973 326.8000150118927 L 72.581768786066 325.83111828756546 L 626.9595768136849 326 Z"></path><path fill="none" d="M 80.08814852303937 318.3257341734667 L 635.4351485227345 318.49491113365025 L 635.418231213934 317.5426338937864 L 81.0404231863152 317.37375218135185 Z" visibility="hidden"></path></g><g stroke-linejoin="round" class="highcharts-3d-frame highcharts-3d-frame-left" data-z-index="-1000" aria-hidden="true"><path fill="none" d="M 71.61257681398973 326.8000150118927 L 72.581768786066 325.83111828756546 L 81.0404231863152 317.37375218135185 L 80.08814852303937 318.3257341734667 Z" visibility="hidden"></path><path fill="none" d="M 80.08814852303937 45.98279002003861 L 81.0404231863152 46.00000000000003 L 72.581768786066 54.45736610621361 L 71.61257681398973 54.45707085846462 Z"></path><path fill="none" d="M 80.08814852303937 318.3257341734667 L 80.08814852303937 45.98279002003861 L 71.61257681398973 54.45707085846462 L 71.61257681398973 326.8000150118927 Z" visibility="hidden"></path><path fill="none" d="M 81.0404231863152 46.00000000000003 L 81.0404231863152 317.37375218135185 L 72.581768786066 325.83111828756546 L 72.581768786066 54.45736610621361 Z"></path><path fill="none" d="M 71.61257681398973 326.8000150118927 L 71.61257681398973 54.45707085846462 L 72.581768786066 54.45736610621361 L 72.581768786066 325.83111828756546 Z"></path><path fill="none" d="M 80.08814852303937 45.98279002003861 L 80.08814852303937 318.3257341734667 L 81.0404231863152 317.37375218135185 L 81.0404231863152 46.00000000000003 Z" visibility="hidden"></path></g><g stroke-linejoin="round" class="highcharts-3d-frame highcharts-3d-frame-back" data-z-index="-1000" aria-hidden="true"><path fill="none" d="M 635.4351485227345 318.49491113365025 L 80.08814852303937 318.3257341734667 L 81.0404231863152 317.37375218135185 L 635.418231213934 317.5426338937864 Z" visibility="hidden"></path><path fill="none" d="M 80.08814852303937 45.98279002003861 L 635.4351485227345 46.15196698022211 L 635.418231213934 46.16888171243454 L 81.0404231863152 46.00000000000003 Z"></path><path fill="none" d="M 80.08814852303937 318.3257341734667 L 80.08814852303937 45.98279002003861 L 81.0404231863152 46.00000000000003 L 81.0404231863152 317.37375218135185 Z" visibility="hidden"></path><path fill="none" d="M 635.4351485227345 46.15196698022211 L 635.4351485227345 318.49491113365025 L 635.418231213934 317.5426338937864 L 635.418231213934 46.16888171243454 Z"></path><path fill="none" d="M 81.0404231863152 46.00000000000003 L 635.418231213934 46.16888171243454 L 635.418231213934 317.5426338937864 L 81.0404231863152 317.37375218135185 Z"></path><path fill="none" d="M 80.08814852303937 318.3257341734667 L 635.4351485227345 318.49491113365025 L 635.4351485227345 46.15196698022211 L 80.08814852303937 45.98279002003861 Z" visibility="hidden"></path></g><rect fill="none" class="highcharts-plot-background" x="68" y="46" width="572" height="280" aria-hidden="true"></rect><g class="highcharts-pane-group" data-z-index="0" aria-hidden="true"></g><g class="highcharts-grid highcharts-xaxis-grid" data-z-index="1" aria-hidden="true"><path fill="none" stroke="#e6e6e6" stroke-width="1" stroke-dasharray="none" data-z-index="1" class="highcharts-grid-line" d="M 127.07704185993734 46.01402426807809 L 127.07704185993734 317.3877764494299 M 118.61838745968822 325.8451425556435 L 127.07704185993734 317.3877764494299" opacity="1"></path><path fill="none" stroke="#e6e6e6" stroke-width="1" stroke-dasharray="none" data-z-index="1" class="highcharts-grid-line" d="M 172.6290645475214 46.02790091228161 L 172.6290645475214 317.40165309363346 M 164.17041014727226 325.859019199847 L 172.6290645475214 317.40165309363346" opacity="1"></path><path fill="none" stroke="#e6e6e6" stroke-width="1" stroke-dasharray="none" data-z-index="1" class="highcharts-grid-line" d="M 219.1502792071817 46.04207280423418 L 219.1502792071817 317.415824985586 M 210.6916248069326 325.87319109179964 L 219.1502792071817 317.415824985586" opacity="1"></path><path fill="none" stroke="#e6e6e6" stroke-width="1" stroke-dasharray="none" data-z-index="1" class="highcharts-grid-line" d="M 265.67149386684207 46.056244696186695 L 265.67149386684207 317.42999687753854 M 257.2128394665929 325.88736298375215 L 265.67149386684207 317.42999687753854" opacity="1"></path><path fill="none" stroke="#e6e6e6" stroke-width="1" stroke-dasharray="none" data-z-index="1" class="highcharts-grid-line" d="M 311.2235165544261 46.070121340390244 L 311.2235165544261 317.4438735217421 M 302.76486215417697 325.90123962795565 L 311.2235165544261 317.4438735217421" opacity="1"></path><path fill="none" stroke="#e6e6e6" stroke-width="1" stroke-dasharray="none" data-z-index="1" class="highcharts-grid-line" d="M 357.74473121408647 46.08429323234276 L 357.74473121408647 317.4580454136946 M 349.28607681383727 325.91541151990816 L 357.74473121408647 317.4580454136946" opacity="1"></path><path fill="none" stroke="#e6e6e6" stroke-width="1" stroke-dasharray="none" data-z-index="1" class="highcharts-grid-line" d="M 404.2659458737468 46.09846512429533 L 404.2659458737468 317.4722173056472 M 395.8072914734976 325.9295834118608 L 404.2659458737468 317.4722173056472" opacity="1"></path><path fill="none" stroke="#e6e6e6" stroke-width="1" stroke-dasharray="none" data-z-index="1" class="highcharts-grid-line" d="M 449.8179685613309 46.11234176849885 L 449.8179685613309 317.48609394985067 M 441.35931416108167 325.9434600560643 L 449.8179685613309 317.48609394985067" opacity="1"></path><path fill="none" stroke="#e6e6e6" stroke-width="1" stroke-dasharray="none" data-z-index="1" class="highcharts-grid-line" d="M 496.3391832209911 46.126513660451394 L 496.3391832209911 317.50026584180324 M 487.88052882074203 325.9576319480168 L 496.3391832209911 317.50026584180324" opacity="1"></path><path fill="none" stroke="#e6e6e6" stroke-width="1" stroke-dasharray="none" data-z-index="1" class="highcharts-grid-line" d="M 542.8603978806515 46.140685552403966 L 542.8603978806515 317.5144377337558 M 534.4017434804023 325.9718038399694 L 542.8603978806515 317.5144377337558" opacity="1"></path><path fill="none" stroke="#e6e6e6" stroke-width="1" stroke-dasharray="none" data-z-index="1" class="highcharts-grid-line" d="M 588.4124205682356 46.154562196607486 L 588.4124205682356 317.5283143779593 M 579.9537661679865 325.9856804841729 L 588.4124205682356 317.5283143779593" opacity="1"></path><path fill="none" stroke="#e6e6e6" stroke-width="1" stroke-dasharray="none" data-z-index="1" class="highcharts-grid-line" d="M 635.9028271999721 46.16902933630902 L 635.9028271999721 317.54278151766084 M 627.444172799723 326.00014762387445 L 635.9028271999721 317.54278151766084" opacity="1"></path><path fill="none" stroke="#e6e6e6" stroke-width="1" stroke-dasharray="none" data-z-index="1" class="highcharts-grid-line" d="M 80.55582720027707 45.999852376125546 L 80.55582720027707 317.3736045574774 M 72.09717280002786 325.830970663691 L 80.55582720027707 317.3736045574774" opacity="1"></path></g><g class="highcharts-grid highcharts-zaxis-grid" data-z-index="1" aria-hidden="true"></g><g class="highcharts-grid highcharts-yaxis-grid" data-z-index="1" aria-hidden="true"><path fill="none" stroke="#e6e6e6" stroke-width="1" stroke-dasharray="none" data-z-index="1" class="highcharts-grid-line" d="M 81.0404231863152 317.85834816739 L 635.418231213934 318.0272298798245 M 72.581768786066 326.3157142736036 L 81.0404231863152 317.85834816739" opacity="1"></path><path fill="none" stroke="#e6e6e6" stroke-width="1" stroke-dasharray="none" data-z-index="1" class="highcharts-grid-line" d="M 81.0404231863152 250.01491012205207 L 635.418231213934 250.18379183448656 M 72.581768786066 258.4722762282656 L 81.0404231863152 250.01491012205207" opacity="1"></path><path fill="none" stroke="#e6e6e6" stroke-width="1" stroke-dasharray="none" data-z-index="1" class="highcharts-grid-line" d="M 81.0404231863152 182.1714720767141 L 635.418231213934 182.34035378914857 M 72.581768786066 190.62883818292767 L 81.0404231863152 182.1714720767141" opacity="1"></path><path fill="none" stroke="#e6e6e6" stroke-width="1" stroke-dasharray="none" data-z-index="1" class="highcharts-grid-line" d="M 81.0404231863152 114.32803403137613 L 635.418231213934 114.4969157438106 M 72.581768786066 122.7854001375897 L 81.0404231863152 114.32803403137613" opacity="1"></path><path fill="none" stroke="#e6e6e6" stroke-width="1" stroke-dasharray="none" data-z-index="1" class="highcharts-grid-line" d="M 81.0404231863152 45.5154040139619 L 635.418231213934 45.68428572639641 M 72.581768786066 53.97277012017548 L 81.0404231863152 45.5154040139619" opacity="1"></path></g><rect fill="none" class="highcharts-plot-border" data-z-index="1" x="68" y="46" width="572" height="280" aria-hidden="true"></rect><g class="highcharts-axis highcharts-xaxis" data-z-index="2" aria-hidden="true"><path fill="none" class="highcharts-axis-line" stroke="#ccd6eb" stroke-width="1" data-z-index="7" d="M 0 0"></path></g><g class="highcharts-axis highcharts-zaxis" data-z-index="2" aria-hidden="true"><path fill="none" class="highcharts-axis-line" data-z-index="7" d="M 0 0"></path></g><g class="highcharts-axis highcharts-yaxis" data-z-index="2" aria-hidden="true"><text x="30.385204010422456" data-z-index="7" text-anchor="middle" transform="translate(0,0) rotate(270 30.385204010422456 190.14424219688954)" class="highcharts-axis-title" style="color: rgb(102, 102, 102); fill: rgb(102, 102, 102);" y="190.14424219688954" z="12.576523551623467">Values</text><path fill="none" class="highcharts-axis-line" data-z-index="7" d="M 0 0"></path></g><g class="highcharts-series-group" data-z-index="3" aria-hidden="false"><g class="highcharts-series highcharts-series-0 highcharts-areaspline-series" data-z-index="0.1" opacity="1" transform="translate(68,46) scale(1 1)" clip-path="url(#highcharts-o9u6zjk-8851-)" aria-hidden="true"><path fill="rgb(148,209,61)" fill-opacity="0.35" d="M 27.680844120549807 182.1436042402969 C 27.680844120549807 182.1436042402969 55.39973452193094 149.0444505597929 73.87899478951837 122.4554522364357 C 92.35825505710696 95.86645391307688 101.59788519090125 49.198612623506904 120.07714545848984 49.198612623506904 C 138.55640572607453 49.198612623506904 147.7960358598669 49.21268609954312 166.2752961274516 49.21268609954312 C 184.7545563950402 49.21268609954312 193.9941865288345 38.371809488325255 212.47344679642308 38.371809488325255 C 230.9527070640078 38.371809488325255 240.19233719780013 57.9191637310054 258.6715974653848 68.23699570431016 C 277.1508577329734 78.5548276776171 286.3904878667677 82.89962240772488 304.8697481343563 89.96096935485451 C 323.3490084019449 97.02231630198415 332.5886385357392 98.11062600591623 351.0678988033278 103.54373043995832 C 369.54715907091247 108.97683487399927 378.78678920470486 105.72316454303207 397.2660494722895 117.12649152506212 C 415.7453097398781 128.5298185070946 424.9849398736724 160.56036535011464 443.464200141261 160.56036535011464 C 461.94346040884955 160.56036535011464 471.1830905426439 157.8607013043373 489.6623508102325 157.8607013043373 C 508.1416110778173 157.8607013043373 535.8605014791943 231.14568786933853 535.8605014791943 231.14568786933853 L 535.8605014791943 280 C 535.8605014791943 280 508.1416110778173 280 489.6623508102325 280 C 471.1830905426439 280 461.94346040884955 280 443.464200141261 280 C 424.9849398736724 280 415.7453097398781 280 397.2660494722895 280 C 378.78678920470486 280 369.54715907091247 280 351.0678988033278 280 C 332.5886385357392 280 323.3490084019449 280 304.8697481343563 280 C 286.3904878667677 280 277.1508577329734 280 258.6715974653848 280 C 240.19233719780013 280 230.9527070640078 280 212.47344679642308 280 C 193.9941865288345 280 184.7545563950402 280 166.2752961274516 280 C 147.7960358598669 280 138.55640572607453 280 120.07714545848984 280 C 101.59788519090125 280 92.35825505710696 280 73.87899478951837 280 C 55.39973452193094 280 27.680844120549807 280 27.680844120549807 280 Z" class="highcharts-area" data-z-index="0"></path><path fill="none" d="M 27.680844120549807 182.1436042402969 C 27.680844120549807 182.1436042402969 55.39973452193094 149.0444505597929 73.87899478951837 122.4554522364357 C 92.35825505710696 95.86645391307688 101.59788519090125 49.198612623506904 120.07714545848984 49.198612623506904 C 138.55640572607453 49.198612623506904 147.7960358598669 49.21268609954312 166.2752961274516 49.21268609954312 C 184.7545563950402 49.21268609954312 193.9941865288345 38.371809488325255 212.47344679642308 38.371809488325255 C 230.9527070640078 38.371809488325255 240.19233719780013 57.9191637310054 258.6715974653848 68.23699570431016 C 277.1508577329734 78.5548276776171 286.3904878667677 82.89962240772488 304.8697481343563 89.96096935485451 C 323.3490084019449 97.02231630198415 332.5886385357392 98.11062600591623 351.0678988033278 103.54373043995832 C 369.54715907091247 108.97683487399927 378.78678920470486 105.72316454303207 397.2660494722895 117.12649152506212 C 415.7453097398781 128.5298185070946 424.9849398736724 160.56036535011464 443.464200141261 160.56036535011464 C 461.94346040884955 160.56036535011464 471.1830905426439 157.8607013043373 489.6623508102325 157.8607013043373 C 508.1416110778173 157.8607013043373 535.8605014791943 231.14568786933853 535.8605014791943 231.14568786933853" class="highcharts-graph" data-z-index="1" stroke="#94d13d" stroke-width="2" stroke-linejoin="round" stroke-linecap="round"></path></g><g class="highcharts-markers highcharts-series-0 highcharts-areaspline-series" data-z-index="0.1" opacity="1" transform="translate(68,46) scale(1 1)" clip-path="none" aria-hidden="false"><path fill="#94d13d" d="M 27 186 A 4 4 0 1 1 27.003999999333335 185.99999800000018 Z" opacity="1" class="highcharts-point" tabindex="-1" role="img" aria-label="Jan, 36 units. Monthly Review." style="outline: none;"></path><path fill="#94d13d" d="M 73 126 A 4 4 0 1 1 73.00399999933333 125.99999800000016 Z" opacity="1" class="highcharts-point" tabindex="-1" role="img" aria-label="Feb, 58 units. Monthly Review." style="outline: none;"></path><path fill="#94d13d" d="M 120 53 A 4 4 0 1 1 120.00399999933333 52.99999800000017 Z" opacity="1" class="highcharts-point" tabindex="-1" role="img" aria-label="Mar, 85 units. Monthly Review." style="outline: none;"></path><path fill="#94d13d" d="M 166 53 A 4 4 0 1 1 166.00399999933333 52.99999800000017 Z" opacity="1" class="highcharts-point" tabindex="-1" role="img" aria-label="Apr, 85 units. Monthly Review." style="outline: none;"></path><path fill="#94d13d" d="M 212 42 A 4 4 0 1 1 212.00399999933333 41.99999800000017 Z" opacity="1" class="highcharts-point" tabindex="-1" role="img" aria-label="May, 89 units. Monthly Review." style="outline: none;"></path><path fill="#94d13d" d="M 258 72 A 4 4 0 1 1 258.00399999933336 71.99999800000016 Z" opacity="1" class="highcharts-point" tabindex="-1" role="img" aria-label="Jun, 78 units. Monthly Review." style="outline: none;"></path><path fill="#94d13d" d="M 304 94 A 4 4 0 1 1 304.00399999933336 93.99999800000016 Z" opacity="1" class="highcharts-point" tabindex="-1" role="img" aria-label="Jul, 70 units. Monthly Review." style="outline: none;"></path><path fill="#94d13d" d="M 351 108 A 4 4 0 1 1 351.00399999933336 107.99999800000016 Z" opacity="1" class="highcharts-point" tabindex="-1" role="img" aria-label="Aug, 65 units. Monthly Review." style="outline: none;"></path><path fill="#94d13d" d="M 397 121 A 4 4 0 1 1 397.00399999933336 120.99999800000016 Z" opacity="1" class="highcharts-point" tabindex="-1" role="img" aria-label="Sep, 60 units. Monthly Review." style="outline: none;"></path><path fill="#94d13d" d="M 443 165 A 4 4 0 1 1 443.00399999933336 164.99999800000018 Z" opacity="1" class="highcharts-point" tabindex="-1" role="img" aria-label="Oct, 44 units. Monthly Review." style="outline: none;"></path><path fill="#94d13d" d="M 489 162 A 4 4 0 1 1 489.00399999933336 161.99999800000018 Z" opacity="1" class="highcharts-point" tabindex="-1" role="img" aria-label="Nov, 45 units. Monthly Review." style="outline: none;"></path><path fill="#94d13d" d="M 535 235 A 4 4 0 1 1 535.0039999993334 234.99999800000018 Z" opacity="1" class="highcharts-point" tabindex="-1" role="img" aria-label="Dec, 18 units. Monthly Review." style="outline: none;"></path></g></g><text x="325" text-anchor="middle" class="highcharts-title" data-z-index="4" style="color: rgb(51, 51, 51); font-size: 18px; fill: rgb(51, 51, 51);" y="24" aria-hidden="true">Monthly Performance Review</text><text x="325" text-anchor="middle" class="highcharts-subtitle" data-z-index="4" style="color: rgb(102, 102, 102); fill: rgb(102, 102, 102);" y="45" aria-hidden="true"></text><text x="10" text-anchor="start" class="highcharts-caption" data-z-index="4" style="color: rgb(102, 102, 102); fill: rgb(102, 102, 102);" y="397" aria-hidden="true"></text><g class="highcharts-legend highcharts-no-tooltip" data-z-index="7" transform="translate(264,359)" aria-hidden="true"><rect fill="none" class="highcharts-legend-box" rx="0" ry="0" x="0" y="0" width="121" height="26"></rect><g data-z-index="1"><g><g class="highcharts-legend-item highcharts-areaspline-series highcharts-color-undefined highcharts-series-0" data-z-index="1" transform="translate(8,3)"><text x="21" text-anchor="start" data-z-index="2" y="15" style="color: rgb(51, 51, 51); cursor: pointer; font-size: 12px; font-weight: bold; fill: rgb(51, 51, 51);">Monthly Review</text><rect x="2" y="4" width="12" height="12" fill="#94d13d" rx="6" ry="6" class="highcharts-point" data-z-index="3"></rect></g></g></g></g><g class="highcharts-axis-labels highcharts-xaxis-labels" data-z-index="7" aria-hidden="true"><text x="95.68084412055333" style="color: rgb(102, 102, 102); cursor: default; font-size: 11px; fill: rgb(102, 102, 102);" text-anchor="middle" transform="translate(0,0)" y="344.25560756226076" z="14.541812332630315" opacity="1">Jan</text><text x="141.87899478951513" style="color: rgb(102, 102, 102); cursor: default; font-size: 11px; fill: rgb(102, 102, 102);" text-anchor="middle" transform="translate(0,0)" y="344.269681038297" z="13.73554343050472" opacity="1">Feb</text><text x="188.0771454584866" style="color: rgb(102, 102, 102); cursor: default; font-size: 11px; fill: rgb(102, 102, 102);" text-anchor="middle" transform="translate(0,0)" y="344.28375451433317" z="12.929274528378954" opacity="1">Mar</text><text x="234.27529612744837" style="color: rgb(102, 102, 102); cursor: default; font-size: 11px; fill: rgb(102, 102, 102);" text-anchor="middle" transform="translate(0,0)" y="344.2978279903694" z="12.123005626253388" opacity="1">Apr</text><text x="280.47344679641986" style="color: rgb(102, 102, 102); cursor: default; font-size: 11px; fill: rgb(102, 102, 102);" text-anchor="middle" transform="translate(0,0)" y="344.31190146640563" z="11.31673672412765" opacity="1">May</text><text x="326.6715974653913" style="color: rgb(102, 102, 102); cursor: default; font-size: 11px; fill: rgb(102, 102, 102);" text-anchor="middle" transform="translate(0,0)" y="344.3259749424418" z="10.510467822001885" opacity="1">Jun</text><text x="372.8697481343531" style="color: rgb(102, 102, 102); cursor: default; font-size: 11px; fill: rgb(102, 102, 102);" text-anchor="middle" transform="translate(0,0)" y="344.340048418478" z="9.70419891987629" opacity="1">Jul</text><text x="419.06789880332457" style="color: rgb(102, 102, 102); cursor: default; font-size: 11px; fill: rgb(102, 102, 102);" text-anchor="middle" transform="translate(0,0)" y="344.3541218945142" z="8.897930017750554" opacity="1">Aug</text><text x="465.266049472296" style="color: rgb(102, 102, 102); cursor: default; font-size: 11px; fill: rgb(102, 102, 102);" text-anchor="middle" transform="translate(0,0)" y="344.36819537055044" z="8.091661115624817" opacity="1">Sep</text><text x="511.4642001412578" style="color: rgb(102, 102, 102); cursor: default; font-size: 11px; fill: rgb(102, 102, 102);" text-anchor="middle" transform="translate(0,0)" y="344.3822688465866" z="7.285392213499222" opacity="1">Oct</text><text x="557.6623508102291" style="color: rgb(102, 102, 102); cursor: default; font-size: 11px; fill: rgb(102, 102, 102);" text-anchor="middle" transform="translate(0,0)" y="344.39634232262284" z="6.479123311373456" opacity="1">Nov</text><text x="603.8605014792007" style="color: rgb(102, 102, 102); cursor: default; font-size: 11px; fill: rgb(102, 102, 102);" text-anchor="middle" transform="translate(0,0)" y="344.4104157986591" z="5.672854409247719" opacity="1">Dec</text></g><g class="highcharts-axis-labels highcharts-zaxis-labels" data-z-index="7" aria-hidden="true"></g><g class="highcharts-axis-labels highcharts-yaxis-labels" data-z-index="7" aria-hidden="true"><text x="58.04167467816302" style="color: rgb(102, 102, 102); cursor: default; font-size: 11px; fill: rgb(102, 102, 102);" text-anchor="end" transform="translate(0,0)" y="330.67707814794676" z="15.02953332769573" opacity="1">0</text><text x="58.04167467816302" style="color: rgb(102, 102, 102); cursor: default; font-size: 11px; fill: rgb(102, 102, 102);" text-anchor="end" transform="translate(0,0)" y="262.8336401026088" z="13.84532171166083" opacity="1">25</text><text x="58.04167467816302" style="color: rgb(102, 102, 102); cursor: default; font-size: 11px; fill: rgb(102, 102, 102);" text-anchor="end" transform="translate(0,0)" y="194.99020205727084" z="12.661110095625958" opacity="1">50</text><text x="58.04167467816302" style="color: rgb(102, 102, 102); cursor: default; font-size: 11px; fill: rgb(102, 102, 102);" text-anchor="end" transform="translate(0,0)" y="127.14676401193287" z="11.476898479591057" opacity="1">75</text><text x="58.04167467816302" style="color: rgb(102, 102, 102); cursor: default; font-size: 11px; fill: rgb(102, 102, 102);" text-anchor="end" transform="translate(0,0)" y="59.30332596659488" z="10.292686863556185" opacity="1">100</text></g><g stroke-linejoin="round" class="highcharts-3d-frame highcharts-3d-frame-top" data-z-index="1000" aria-hidden="true"><path fill="none" d="M 80.08814852303937 45.98279002003861 L 635.4351485227345 46.15196698022211 L 626.9595768136849 54.626247818648125 L 71.61257681398973 54.45707085846462 Z" visibility="hidden"></path><path fill="none" d="M 72.581768786066 54.45736610621361 L 626.9595768136849 54.626247818648125 L 635.418231213934 46.16888171243454 L 81.0404231863152 46.00000000000003 Z" visibility="hidden"></path><path fill="none" d="M 80.08814852303937 45.98279002003861 L 71.61257681398973 54.45707085846462 L 72.581768786066 54.45736610621361 L 81.0404231863152 46.00000000000003 Z" visibility="hidden"></path><path fill="none" d="M 626.9595768136849 54.626247818648125 L 635.4351485227345 46.15196698022211 L 635.418231213934 46.16888171243454 L 626.9595768136849 54.626247818648125 Z" visibility="hidden"></path><path fill="none" d="M 71.61257681398973 54.45707085846462 L 626.9595768136849 54.626247818648125 L 626.9595768136849 54.626247818648125 L 72.581768786066 54.45736610621361 Z" visibility="hidden"></path><path fill="none" d="M 635.4351485227345 46.15196698022211 L 80.08814852303937 45.98279002003861 L 81.0404231863152 46.00000000000003 L 635.418231213934 46.16888171243454 Z" visibility="hidden"></path></g><g stroke-linejoin="round" class="highcharts-3d-frame highcharts-3d-frame-right" data-z-index="1000" aria-hidden="true"><path fill="none" d="M 635.4351485227345 318.49491113365025 L 635.418231213934 317.5426338937864 L 626.9595768136849 326 L 626.9595768136849 326.96919197207626 Z" visibility="hidden"></path><path fill="none" d="M 626.9595768136849 54.626247818648125 L 626.9595768136849 54.626247818648125 L 635.418231213934 46.16888171243454 L 635.4351485227345 46.15196698022211 Z" visibility="hidden"></path><path fill="none" d="M 626.9595768136849 54.626247818648125 L 626.9595768136849 326 L 635.418231213934 317.5426338937864 L 635.418231213934 46.16888171243454 Z" visibility="hidden"></path><path fill="none" d="M 626.9595768136849 326.96919197207626 L 626.9595768136849 54.626247818648125 L 635.4351485227345 46.15196698022211 L 635.4351485227345 318.49491113365025 Z" visibility="hidden"></path><path fill="none" d="M 626.9595768136849 54.626247818648125 L 626.9595768136849 326.96919197207626 L 626.9595768136849 326 L 626.9595768136849 54.626247818648125 Z" visibility="hidden"></path><path fill="none" d="M 635.4351485227345 318.49491113365025 L 635.4351485227345 46.15196698022211 L 635.418231213934 46.16888171243454 L 635.418231213934 317.5426338937864 Z" visibility="hidden"></path></g><g stroke-linejoin="round" class="highcharts-3d-frame highcharts-3d-frame-front" data-z-index="1000" aria-hidden="true"><path fill="none" d="M 71.61257681398973 326.8000150118927 L 626.9595768136849 326.96919197207626 L 626.9595768136849 326 L 72.581768786066 325.83111828756546 Z" visibility="hidden"></path><path fill="none" d="M 626.9595768136849 54.626247818648125 L 71.61257681398973 54.45707085846462 L 72.581768786066 54.45736610621361 L 626.9595768136849 54.626247818648125 Z" visibility="hidden"></path><path fill="none" d="M 71.61257681398973 54.45707085846462 L 71.61257681398973 326.8000150118927 L 72.581768786066 325.83111828756546 L 72.581768786066 54.45736610621361 Z" visibility="hidden"></path><path fill="none" d="M 626.9595768136849 326.96919197207626 L 626.9595768136849 54.626247818648125 L 626.9595768136849 54.626247818648125 L 626.9595768136849 326 Z" visibility="hidden"></path><path fill="none" d="M 626.9595768136849 54.626247818648125 L 72.581768786066 54.45736610621361 L 72.581768786066 325.83111828756546 L 626.9595768136849 326 Z" visibility="hidden"></path><path fill="none" d="M 626.9595768136849 326.96919197207626 L 71.61257681398973 326.8000150118927 L 71.61257681398973 54.45707085846462 L 626.9595768136849 54.626247818648125 Z" visibility="hidden"></path></g></svg>