<?xml version="1.0" standalone="no"?><!DOCTYPE svg PUBLIC "-//W3C//DTD SVG 1.1//EN" "http://www.w3.org/Graphics/SVG/1.1/DTD/svg11.dtd"><svg xmlns:xlink="http://www.w3.org/1999/xlink" version="1.1" class="highcharts-root" style="font-family: Roboto; font-size: 12px;" xmlns="http://www.w3.org/2000/svg" width="650" height="400" viewBox="0 0 650 400" aria-label="Interactive chart" aria-hidden="false"><desc aria-hidden="true">Created with Highcharts 10.3.1</desc><defs aria-hidden="true"><clipPath id="highcharts-o9u6zjk-6908-"><rect x="0" y="0" width="650" height="400" fill="none"></rect></clipPath><clipPath id="highcharts-o9u6zjk-6921-"><rect x="0" y="0" width="650" height="400" fill="none"></rect></clipPath></defs><rect fill="#ffffff" class="highcharts-background" x="0" y="0" width="650" height="400" rx="0" ry="0" aria-hidden="true"></rect><g stroke-linejoin="round" class="highcharts-3d-frame highcharts-3d-frame-bottom" data-z-index="-1000" aria-hidden="true"><path fill="none" d="M 64.72251429070707 326.79794238788236 L 626.8497089252144 326.9691848183354 L 635.3252180748891 318.4949665297562 L 73.19802344038175 318.32372409930326 Z" visibility="hidden"></path><path fill="none" d="M 74.15029107478568 317.37174913390004 L 635.3083008909575 317.5426963187833 L 626.8497089252144 326 L 65.69169910904242 325.82905281511677 Z"></path><path fill="none" d="M 64.72251429070707 326.79794238788236 L 73.19802344038175 318.32372409930326 L 74.15029107478568 317.37174913390004 L 65.69169910904242 325.82905281511677 Z" visibility="hidden"></path><path fill="none" d="M 635.3252180748891 318.4949665297562 L 626.8497089252144 326.9691848183354 L 626.8497089252144 326 L 635.3083008909575 317.5426963187833 Z"></path><path fill="none" d="M 626.8497089252144 326.9691848183354 L 64.72251429070707 326.79794238788236 L 65.69169910904242 325.82905281511677 L 626.8497089252144 326 Z"></path><path fill="none" d="M 73.19802344038175 318.32372409930326 L 635.3252180748891 318.4949665297562 L 635.3083008909575 317.5426963187833 L 74.15029107478568 317.37174913390004 Z" visibility="hidden"></path></g><g stroke-linejoin="round" class="highcharts-3d-frame highcharts-3d-frame-left" data-z-index="-1000" aria-hidden="true"><path fill="none" d="M 64.72251429070707 326.79794238788236 L 65.69169910904242 325.82905281511677 L 74.15029107478568 317.37174913390004 L 73.19802344038175 318.32372409930326 Z" visibility="hidden"></path><path fill="none" d="M 73.19802344038175 45.98279014706782 L 74.15029107478568 45.99999999999997 L 65.69169910904242 54.4573036812167 L 64.72251429070707 54.45700843564697 Z"></path><path fill="none" d="M 73.19802344038175 318.32372409930326 L 73.19802344038175 45.98279014706782 L 64.72251429070707 54.45700843564697 L 64.72251429070707 326.79794238788236 Z" visibility="hidden"></path><path fill="none" d="M 74.15029107478568 45.99999999999997 L 74.15029107478568 317.37174913390004 L 65.69169910904242 325.82905281511677 L 65.69169910904242 54.4573036812167 Z"></path><path fill="none" d="M 64.72251429070707 326.79794238788236 L 64.72251429070707 54.45700843564697 L 65.69169910904242 54.4573036812167 L 65.69169910904242 325.82905281511677 Z"></path><path fill="none" d="M 73.19802344038175 45.98279014706782 L 73.19802344038175 318.32372409930326 L 74.15029107478568 317.37174913390004 L 74.15029107478568 45.99999999999997 Z" visibility="hidden"></path></g><g stroke-linejoin="round" class="highcharts-3d-frame highcharts-3d-frame-back" data-z-index="-1000" aria-hidden="true"><path fill="none" d="M 635.3252180748891 318.4949665297562 L 73.19802344038175 318.32372409930326 L 74.15029107478568 317.37174913390004 L 635.3083008909575 317.5426963187833 Z" visibility="hidden"></path><path fill="none" d="M 73.19802344038175 45.98279014706782 L 635.3252180748891 46.15403257752081 L 635.3083008909575 46.17094718488323 L 74.15029107478568 45.99999999999997 Z"></path><path fill="none" d="M 73.19802344038175 318.32372409930326 L 73.19802344038175 45.98279014706782 L 74.15029107478568 45.99999999999997 L 74.15029107478568 317.37174913390004 Z" visibility="hidden"></path><path fill="none" d="M 635.3252180748891 46.15403257752081 L 635.3252180748891 318.4949665297562 L 635.3083008909575 317.5426963187833 L 635.3083008909575 46.17094718488323 Z"></path><path fill="none" d="M 74.15029107478568 45.99999999999997 L 635.3083008909575 46.17094718488323 L 635.3083008909575 317.5426963187833 L 74.15029107478568 317.37174913390004 Z"></path><path fill="none" d="M 73.19802344038175 318.32372409930326 L 635.3252180748891 318.4949665297562 L 635.3252180748891 46.15403257752081 L 73.19802344038175 45.98279014706782 Z" visibility="hidden"></path></g><rect fill="none" class="highcharts-plot-background" x="61" y="46" width="579" height="280" aria-hidden="true"></rect><g class="highcharts-pane-group" data-z-index="0" aria-hidden="true"></g><g class="highcharts-grid highcharts-xaxis-grid" data-z-index="1" aria-hidden="true"><path fill="none" stroke="#e6e6e6" stroke-width="1" stroke-dasharray="none" data-z-index="1" class="highcharts-grid-line" d="M 120.18656994571512 46.014024164562954 L 120.18656994571512 317.385773298463 M 111.72797797997191 325.8430769796797 L 120.18656994571512 317.385773298463" opacity="1"></path><path fill="none" stroke="#e6e6e6" stroke-width="1" stroke-dasharray="none" data-z-index="1" class="highcharts-grid-line" d="M 167.6766260441476 46.02849119748052 L 167.6766260441476 317.4002403313806 M 159.21803407840443 325.85754401259726 L 167.6766260441476 317.4002403313806" opacity="1"></path><path fill="none" stroke="#e6e6e6" stroke-width="1" stroke-dasharray="none" data-z-index="1" class="highcharts-grid-line" d="M 214.19749732424478 46.042662984828354 L 214.19749732424478 317.4144121187284 M 205.7389053585016 325.87171579994515 L 214.19749732424478 317.4144121187284" opacity="1"></path><path fill="none" stroke="#e6e6e6" stroke-width="1" stroke-dasharray="none" data-z-index="1" class="highcharts-grid-line" d="M 260.71836860434195 46.05683477217619 L 260.71836860434195 317.42858390607626 M 252.25977663859874 325.885887587293 L 260.71836860434195 317.42858390607626" opacity="1"></path><path fill="none" stroke="#e6e6e6" stroke-width="1" stroke-dasharray="none" data-z-index="1" class="highcharts-grid-line" d="M 307.2392398844391 46.07100655952402 L 307.2392398844391 317.44275569342403 M 298.7806479186959 325.9000593746408 L 307.2392398844391 317.44275569342403" opacity="1"></path><path fill="none" stroke="#e6e6e6" stroke-width="1" stroke-dasharray="none" data-z-index="1" class="highcharts-grid-line" d="M 354.72929598287163 46.085473592441616 L 354.72929598287163 317.4572227263417 M 346.27070401712837 325.91452640755836 L 354.72929598287163 317.4572227263417" opacity="1"></path><path fill="none" stroke="#e6e6e6" stroke-width="1" stroke-dasharray="none" data-z-index="1" class="highcharts-grid-line" d="M 401.2501672629688 46.09964537978945 L 401.2501672629688 317.47139451368946 M 392.79157529722556 325.92869819490625 L 401.2501672629688 317.47139451368946" opacity="1"></path><path fill="none" stroke="#e6e6e6" stroke-width="1" stroke-dasharray="none" data-z-index="1" class="highcharts-grid-line" d="M 447.7710385430659 46.113817167137285 L 447.7710385430659 317.48556630103735 M 439.3124465773227 325.9428699822541 L 447.7710385430659 317.48556630103735" opacity="1"></path><path fill="none" stroke="#e6e6e6" stroke-width="1" stroke-dasharray="none" data-z-index="1" class="highcharts-grid-line" d="M 494.2919098231631 46.12798895448512 L 494.2919098231631 317.49973808838513 M 485.8333178574199 325.9570417696019 L 494.2919098231631 317.49973808838513" opacity="1"></path><path fill="none" stroke="#e6e6e6" stroke-width="1" stroke-dasharray="none" data-z-index="1" class="highcharts-grid-line" d="M 541.7819659215955 46.14245598740271 L 541.7819659215955 317.5142051213028 M 533.3233739558524 325.97150880251945 L 541.7819659215955 317.5142051213028" opacity="1"></path><path fill="none" stroke="#e6e6e6" stroke-width="1" stroke-dasharray="none" data-z-index="1" class="highcharts-grid-line" d="M 588.3028372016927 46.15662777475055 L 588.3028372016927 317.52837690865056 M 579.8442452359495 325.98568058986734 L 588.3028372016927 317.52837690865056" opacity="1"></path><path fill="none" stroke="#e6e6e6" stroke-width="1" stroke-dasharray="none" data-z-index="1" class="highcharts-grid-line" d="M 635.7928933001253 46.17109480766811 L 635.7928933001253 317.5428439415682 M 627.334301334382 326.0001476227849 L 635.7928933001253 317.5428439415682" opacity="1"></path><path fill="none" stroke="#e6e6e6" stroke-width="1" stroke-dasharray="none" data-z-index="1" class="highcharts-grid-line" d="M 73.66569866561798 45.99985237721509 L 73.66569866561798 317.37160151111516 M 65.20710669987471 325.8289051923319 L 73.66569866561798 317.37160151111516" opacity="1"></path></g><g class="highcharts-grid highcharts-zaxis-grid" data-z-index="1" aria-hidden="true"></g><g class="highcharts-grid highcharts-yaxis-grid" data-z-index="1" aria-hidden="true"><path fill="none" stroke="#e6e6e6" stroke-width="1" stroke-dasharray="none" data-z-index="1" class="highcharts-grid-line" d="M 74.15029107478568 317.85634154306774 L 635.3083008909575 318.027288727951 M 65.69169910904242 326.3136452242844 L 74.15029107478568 317.85634154306774" opacity="1"></path><path fill="none" stroke="#e6e6e6" stroke-width="1" stroke-dasharray="none" data-z-index="1" class="highcharts-grid-line" d="M 74.15029107478568 263.5819917162877 L 635.3083008909575 263.752938901171 M 65.69169910904242 272.0392953975044 L 74.15029107478568 263.5819917162877" opacity="1"></path><path fill="none" stroke="#e6e6e6" stroke-width="1" stroke-dasharray="none" data-z-index="1" class="highcharts-grid-line" d="M 74.15029107478568 209.3076418895077 L 635.3083008909575 209.47858907439095 M 65.69169910904242 217.76494557072442 L 74.15029107478568 209.3076418895077" opacity="1"></path><path fill="none" stroke="#e6e6e6" stroke-width="1" stroke-dasharray="none" data-z-index="1" class="highcharts-grid-line" d="M 74.15029107478568 155.03329206272767 L 635.3083008909575 155.20423924761093 M 65.69169910904242 163.4905957439444 L 74.15029107478568 155.03329206272767" opacity="1"></path><path fill="none" stroke="#e6e6e6" stroke-width="1" stroke-dasharray="none" data-z-index="1" class="highcharts-grid-line" d="M 74.15029107478568 100.75894223594766 L 635.3083008909575 100.92988942083092 M 65.69169910904242 109.21624591716439 L 74.15029107478568 100.75894223594766" opacity="1"></path><path fill="none" stroke="#e6e6e6" stroke-width="1" stroke-dasharray="none" data-z-index="1" class="highcharts-grid-line" d="M 74.15029107478568 45.5154075908323 L 635.3083008909575 45.68635477571556 M 65.69169910904242 53.972711272049025 L 74.15029107478568 45.5154075908323" opacity="1"></path></g><rect fill="none" class="highcharts-plot-border" data-z-index="1" x="61" y="46" width="579" height="280" aria-hidden="true"></rect><g class="highcharts-axis highcharts-xaxis" data-z-index="2" aria-hidden="true"><path fill="none" class="highcharts-axis-line" stroke="#ccd6eb" stroke-width="1" data-z-index="7" d="M 0 0"></path></g><g class="highcharts-axis highcharts-zaxis" data-z-index="2" aria-hidden="true"><path fill="none" class="highcharts-axis-line" data-z-index="7" d="M 0 0"></path></g><g class="highcharts-axis highcharts-yaxis" data-z-index="2" aria-hidden="true"><text x="29.47804452154645" data-z-index="7" text-anchor="middle" transform="translate(0,0) rotate(270 29.47804452154645 190.14317824816672)" class="highcharts-axis-title" style="color: rgb(102, 102, 102); fill: rgb(102, 102, 102);" y="190.14317824816672" z="12.637477133131256">Values</text><path fill="none" class="highcharts-axis-line" data-z-index="7" d="M 0 0"></path></g><g class="highcharts-series-group" data-z-index="3" aria-hidden="false"><g class="highcharts-series highcharts-series-0 highcharts-areaspline-series" data-z-index="0.1" opacity="1" transform="translate(61,46) scale(1 1)" clip-path="url(#highcharts-o9u6zjk-6921-)" aria-hidden="true"><path fill="rgb(148,209,61)" fill-opacity="0.35" d="M 28.073282851382885 198.42465087431688 C 28.073282851382885 198.42465087431688 56.13118334219151 89.8901968194971 74.83645033606393 89.8901968194971 C 93.54171732993633 89.8901968194971 102.89435082687253 138.73711166359914 121.59961782074492 144.1787922450174 C 140.3048848146173 149.62047282643567 149.65751831155353 149.62047282643567 168.36278530542592 149.62047282643567 C 187.06805229929833 149.62047282643567 196.42068579623452 112.72246230346943 215.1259527901069 89.93293361571793 C 233.8312197839793 67.14340492796643 243.18385328091549 35.67282938767819 261.8891202747879 35.67282938767819 C 280.5943872686603 35.67282938767819 289.9470207655965 69.33147363952597 308.6522877594689 84.53398983052048 C 327.3575547533413 99.736506021515 336.7101882502775 97.56838114819185 355.4154552441499 111.68541034265077 C 374.12072223802227 125.80243953710968 383.4733557349585 149.67745522139674 402.1786227288309 155.11913580281504 C 420.8838897227033 160.56081638423333 430.2365232196395 160.54657078549306 448.9417902135119 160.56081638423333 C 467.6470572073843 160.5750619829736 476.9996907043205 160.56081638423333 495.70495769819286 160.5750619829736 C 514.4102246920653 160.58930758171388 542.4681251828739 193.15391747778187 542.4681251828739 193.15391747778187 L 542.4681251828739 280 C 542.4681251828739 280 514.4102246920653 280 495.70495769819286 280 C 476.9996907043205 280 467.6470572073843 280 448.9417902135119 280 C 430.2365232196395 280 420.8838897227033 280 402.1786227288309 280 C 383.4733557349585 280 374.12072223802227 280 355.4154552441499 280 C 336.7101882502775 280 327.3575547533413 280 308.6522877594689 280 C 289.9470207655965 280 280.5943872686603 280 261.8891202747879 280 C 243.18385328091549 280 233.8312197839793 280 215.1259527901069 280 C 196.42068579623452 280 187.06805229929833 280 168.36278530542592 280 C 149.65751831155353 280 140.3048848146173 280 121.59961782074492 280 C 102.89435082687253 280 93.54171732993633 280 74.83645033606393 280 C 56.13118334219151 280 28.073282851382885 280 28.073282851382885 280 Z" class="highcharts-area" data-z-index="0"></path><path fill="none" d="M 28.073282851382885 198.42465087431688 C 28.073282851382885 198.42465087431688 56.13118334219151 89.8901968194971 74.83645033606393 89.8901968194971 C 93.54171732993633 89.8901968194971 102.89435082687253 138.73711166359914 121.59961782074492 144.1787922450174 C 140.3048848146173 149.62047282643567 149.65751831155353 149.62047282643567 168.36278530542592 149.62047282643567 C 187.06805229929833 149.62047282643567 196.42068579623452 112.72246230346943 215.1259527901069 89.93293361571793 C 233.8312197839793 67.14340492796643 243.18385328091549 35.67282938767819 261.8891202747879 35.67282938767819 C 280.5943872686603 35.67282938767819 289.9470207655965 69.33147363952597 308.6522877594689 84.53398983052048 C 327.3575547533413 99.736506021515 336.7101882502775 97.56838114819185 355.4154552441499 111.68541034265077 C 374.12072223802227 125.80243953710968 383.4733557349585 149.67745522139674 402.1786227288309 155.11913580281504 C 420.8838897227033 160.56081638423333 430.2365232196395 160.54657078549306 448.9417902135119 160.56081638423333 C 467.6470572073843 160.5750619829736 476.9996907043205 160.56081638423333 495.70495769819286 160.5750619829736 C 514.4102246920653 160.58930758171388 542.4681251828739 193.15391747778187 542.4681251828739 193.15391747778187" class="highcharts-graph" data-z-index="1" stroke="#94d13d" stroke-width="2" stroke-linejoin="round" stroke-linecap="round"></path></g><g class="highcharts-markers highcharts-series-0 highcharts-areaspline-series" data-z-index="0.1" opacity="1" transform="translate(61,46) scale(1 1)" clip-path="none" aria-hidden="false"><path fill="#94d13d" d="M 28 202 A 4 4 0 1 1 28.003999999333335 201.99999800000018 Z" opacity="1" class="highcharts-point" tabindex="-1" role="img" aria-label="Jan, 15 units. Monthly Review." style="outline: none;"></path><path fill="#94d13d" d="M 74 94 A 4 4 0 1 1 74.00399999933333 93.99999800000016 Z" opacity="1" class="highcharts-point" tabindex="-1" role="img" aria-label="Feb, 35 units. Monthly Review." style="outline: none;"></path><path fill="#94d13d" d="M 121 148 A 4 4 0 1 1 121.00399999933333 147.99999800000018 Z" opacity="1" class="highcharts-point" tabindex="-1" role="img" aria-label="Mar, 25 units. Monthly Review." style="outline: none;"></path><path fill="#94d13d" d="M 168 154 A 4 4 0 1 1 168.00399999933333 153.99999800000018 Z" opacity="1" class="highcharts-point" tabindex="-1" role="img" aria-label="Apr, 24 units. Monthly Review." style="outline: none;"></path><path fill="#94d13d" d="M 215 94 A 4 4 0 1 1 215.00399999933333 93.99999800000016 Z" opacity="1" class="highcharts-point" tabindex="-1" role="img" aria-label="May, 35 units. Monthly Review." style="outline: none;"></path><path fill="#94d13d" d="M 261 40 A 4 4 0 1 1 261.00399999933336 39.99999800000017 Z" opacity="1" class="highcharts-point" tabindex="-1" role="img" aria-label="Jun, 45 units. Monthly Review." style="outline: none;"></path><path fill="#94d13d" d="M 308 89 A 4 4 0 1 1 308.00399999933336 88.99999800000016 Z" opacity="1" class="highcharts-point" tabindex="-1" role="img" aria-label="Jul, 36 units. Monthly Review." style="outline: none;"></path><path fill="#94d13d" d="M 355 116 A 4 4 0 1 1 355.00399999933336 115.99999800000016 Z" opacity="1" class="highcharts-point" tabindex="-1" role="img" aria-label="Aug, 31 units. Monthly Review." style="outline: none;"></path><path fill="#94d13d" d="M 402 159 A 4 4 0 1 1 402.00399999933336 158.99999800000018 Z" opacity="1" class="highcharts-point" tabindex="-1" role="img" aria-label="Sep, 23 units. Monthly Review." style="outline: none;"></path><path fill="#94d13d" d="M 448 165 A 4 4 0 1 1 448.00399999933336 164.99999800000018 Z" opacity="1" class="highcharts-point" tabindex="-1" role="img" aria-label="Oct, 22 units. Monthly Review." style="outline: none;"></path><path fill="#94d13d" d="M 495 165 A 4 4 0 1 1 495.00399999933336 164.99999800000018 Z" opacity="1" class="highcharts-point" tabindex="-1" role="img" aria-label="Nov, 22 units. Monthly Review." style="outline: none;"></path><path fill="#94d13d" d="M 542 197 A 4 4 0 1 1 542.0039999993334 196.99999800000018 Z" opacity="1" class="highcharts-point" tabindex="-1" role="img" aria-label="Dec, 16 units. Monthly Review." style="outline: none;"></path></g></g><text x="325" text-anchor="middle" class="highcharts-title" data-z-index="4" style="color: rgb(51, 51, 51); font-size: 18px; fill: rgb(51, 51, 51);" y="24" aria-hidden="true">Monthly Performance Review</text><text x="325" text-anchor="middle" class="highcharts-subtitle" data-z-index="4" style="color: rgb(102, 102, 102); fill: rgb(102, 102, 102);" y="45" aria-hidden="true"></text><text x="10" text-anchor="start" class="highcharts-caption" data-z-index="4" style="color: rgb(102, 102, 102); fill: rgb(102, 102, 102);" y="397" aria-hidden="true"></text><g class="highcharts-legend highcharts-no-tooltip" data-z-index="7" transform="translate(264,359)" aria-hidden="true"><rect fill="none" class="highcharts-legend-box" rx="0" ry="0" x="0" y="0" width="121" height="26"></rect><g data-z-index="1"><g><g class="highcharts-legend-item highcharts-areaspline-series highcharts-color-undefined highcharts-series-0" data-z-index="1" transform="translate(8,3)"><text x="21" text-anchor="start" data-z-index="2" y="15" style="color: rgb(51, 51, 51); cursor: pointer; font-size: 12px; font-weight: bold; fill: rgb(51, 51, 51);">Monthly Review</text><rect x="2" y="4" width="12" height="12" fill="#94d13d" rx="6" ry="6" class="highcharts-point" data-z-index="3"></rect></g></g></g></g><g class="highcharts-axis-labels highcharts-xaxis-labels" data-z-index="7" aria-hidden="true"><text x="89.07328285138288" style="color: rgb(102, 102, 102); cursor: default; font-size: 11px; fill: rgb(102, 102, 102);" text-anchor="middle" transform="translate(0,0)" y="344.2534922093824" z="14.597817980920638" opacity="1">Jan</text><text x="135.83645033606393" style="color: rgb(102, 102, 102); cursor: default; font-size: 11px; fill: rgb(102, 102, 102);" text-anchor="middle" transform="translate(0,0)" y="344.26773780812266" z="13.781688175683229" opacity="1">Feb</text><text x="182.59961782074492" style="color: rgb(102, 102, 102); cursor: default; font-size: 11px; fill: rgb(102, 102, 102);" text-anchor="middle" transform="translate(0,0)" y="344.281983406863" z="12.96555837044582" opacity="1">Mar</text><text x="229.36278530542592" style="color: rgb(102, 102, 102); cursor: default; font-size: 11px; fill: rgb(102, 102, 102);" text-anchor="middle" transform="translate(0,0)" y="344.2962290056032" z="12.149428565208382" opacity="1">Apr</text><text x="276.1259527901069" style="color: rgb(102, 102, 102); cursor: default; font-size: 11px; fill: rgb(102, 102, 102);" text-anchor="middle" transform="translate(0,0)" y="344.3104746043435" z="11.333298759970972" opacity="1">May</text><text x="322.8891202747879" style="color: rgb(102, 102, 102); cursor: default; font-size: 11px; fill: rgb(102, 102, 102);" text-anchor="middle" transform="translate(0,0)" y="344.32472020308376" z="10.517168954733563" opacity="1">Jun</text><text x="369.6522877594689" style="color: rgb(102, 102, 102); cursor: default; font-size: 11px; fill: rgb(102, 102, 102);" text-anchor="middle" transform="translate(0,0)" y="344.33896580182403" z="9.701039149496154" opacity="1">Jul</text><text x="416.4154552441498" style="color: rgb(102, 102, 102); cursor: default; font-size: 11px; fill: rgb(102, 102, 102);" text-anchor="middle" transform="translate(0,0)" y="344.3532114005643" z="8.884909344258745" opacity="1">Aug</text><text x="463.1786227288309" style="color: rgb(102, 102, 102); cursor: default; font-size: 11px; fill: rgb(102, 102, 102);" text-anchor="middle" transform="translate(0,0)" y="344.3674569993046" z="8.068779539021307" opacity="1">Sep</text><text x="509.94179021351187" style="color: rgb(102, 102, 102); cursor: default; font-size: 11px; fill: rgb(102, 102, 102);" text-anchor="middle" transform="translate(0,0)" y="344.38170259804485" z="7.2526497337838975" opacity="1">Oct</text><text x="556.7049576981929" style="color: rgb(102, 102, 102); cursor: default; font-size: 11px; fill: rgb(102, 102, 102);" text-anchor="middle" transform="translate(0,0)" y="344.3959481967851" z="6.436519928546488" opacity="1">Nov</text><text x="603.4681251828739" style="color: rgb(102, 102, 102); cursor: default; font-size: 11px; fill: rgb(102, 102, 102);" text-anchor="middle" transform="translate(0,0)" y="344.4101937955254" z="5.620390123309079" opacity="1">Dec</text></g><g class="highcharts-axis-labels highcharts-zaxis-labels" data-z-index="7" aria-hidden="true"></g><g class="highcharts-axis-labels highcharts-yaxis-labels" data-z-index="7" aria-hidden="true"><text x="51.1517123235987" style="color: rgb(102, 102, 102); cursor: default; font-size: 11px; fill: rgb(102, 102, 102);" text-anchor="end" transform="translate(0,0)" y="330.6749769067935" z="15.090468803196785" opacity="1">0</text><text x="51.1517123235987" style="color: rgb(102, 102, 102); cursor: default; font-size: 11px; fill: rgb(102, 102, 102);" text-anchor="end" transform="translate(0,0)" y="276.4006270800136" z="14.14310650303355" opacity="1">10</text><text x="51.1517123235987" text-anchor="end" transform="translate(0,0)" style="color: rgb(102, 102, 102); cursor: default; font-size: 11px; fill: rgb(102, 102, 102);" y="222.12627725323352" z="13.195744202870316" opacity="1">20</text><text x="51.1517123235987" text-anchor="end" transform="translate(0,0)" style="color: rgb(102, 102, 102); cursor: default; font-size: 11px; fill: rgb(102, 102, 102);" y="167.8519274264535" z="12.248381902707052" opacity="1">30</text><text x="51.1517123235987" text-anchor="end" transform="translate(0,0)" style="color: rgb(102, 102, 102); cursor: default; font-size: 11px; fill: rgb(102, 102, 102);" y="113.5775775996735" z="11.301019602543818" opacity="1">40</text><text x="51.1517123235987" text-anchor="end" transform="translate(0,0)" style="color: rgb(102, 102, 102); cursor: default; font-size: 11px; fill: rgb(102, 102, 102);" y="59.30322777289345" z="10.353657302380583" opacity="1">50</text></g><g stroke-linejoin="round" class="highcharts-3d-frame highcharts-3d-frame-top" data-z-index="1000" aria-hidden="true"><path fill="none" d="M 73.19802344038175 45.98279014706782 L 635.3252180748891 46.15403257752081 L 626.8497089252144 54.62825086609996 L 64.72251429070707 54.45700843564697 Z" visibility="hidden"></path><path fill="none" d="M 65.69169910904242 54.4573036812167 L 626.8497089252144 54.62825086609996 L 635.3083008909575 46.17094718488323 L 74.15029107478568 45.99999999999997 Z" visibility="hidden"></path><path fill="none" d="M 73.19802344038175 45.98279014706782 L 64.72251429070707 54.45700843564697 L 65.69169910904242 54.4573036812167 L 74.15029107478568 45.99999999999997 Z" visibility="hidden"></path><path fill="none" d="M 626.8497089252144 54.62825086609996 L 635.3252180748891 46.15403257752081 L 635.3083008909575 46.17094718488323 L 626.8497089252144 54.62825086609996 Z" visibility="hidden"></path><path fill="none" d="M 64.72251429070707 54.45700843564697 L 626.8497089252144 54.62825086609996 L 626.8497089252144 54.62825086609996 L 65.69169910904242 54.4573036812167 Z" visibility="hidden"></path><path fill="none" d="M 635.3252180748891 46.15403257752081 L 73.19802344038175 45.98279014706782 L 74.15029107478568 45.99999999999997 L 635.3083008909575 46.17094718488323 Z" visibility="hidden"></path></g><g stroke-linejoin="round" class="highcharts-3d-frame highcharts-3d-frame-right" data-z-index="1000" aria-hidden="true"><path fill="none" d="M 635.3252180748891 318.4949665297562 L 635.3083008909575 317.5426963187833 L 626.8497089252144 326 L 626.8497089252144 326.9691848183354 Z" visibility="hidden"></path><path fill="none" d="M 626.8497089252144 54.62825086609996 L 626.8497089252144 54.62825086609996 L 635.3083008909575 46.17094718488323 L 635.3252180748891 46.15403257752081 Z" visibility="hidden"></path><path fill="none" d="M 626.8497089252144 54.62825086609996 L 626.8497089252144 326 L 635.3083008909575 317.5426963187833 L 635.3083008909575 46.17094718488323 Z" visibility="hidden"></path><path fill="none" d="M 626.8497089252144 326.9691848183354 L 626.8497089252144 54.62825086609996 L 635.3252180748891 46.15403257752081 L 635.3252180748891 318.4949665297562 Z" visibility="hidden"></path><path fill="none" d="M 626.8497089252144 54.62825086609996 L 626.8497089252144 326.9691848183354 L 626.8497089252144 326 L 626.8497089252144 54.62825086609996 Z" visibility="hidden"></path><path fill="none" d="M 635.3252180748891 318.4949665297562 L 635.3252180748891 46.15403257752081 L 635.3083008909575 46.17094718488323 L 635.3083008909575 317.5426963187833 Z" visibility="hidden"></path></g><g stroke-linejoin="round" class="highcharts-3d-frame highcharts-3d-frame-front" data-z-index="1000" aria-hidden="true"><path fill="none" d="M 64.72251429070707 326.79794238788236 L 626.8497089252144 326.9691848183354 L 626.8497089252144 326 L 65.69169910904242 325.82905281511677 Z" visibility="hidden"></path><path fill="none" d="M 626.8497089252144 54.62825086609996 L 64.72251429070707 54.45700843564697 L 65.69169910904242 54.4573036812167 L 626.8497089252144 54.62825086609996 Z" visibility="hidden"></path><path fill="none" d="M 64.72251429070707 54.45700843564697 L 64.72251429070707 326.79794238788236 L 65.69169910904242 325.82905281511677 L 65.69169910904242 54.4573036812167 Z" visibility="hidden"></path><path fill="none" d="M 626.8497089252144 326.9691848183354 L 626.8497089252144 54.62825086609996 L 626.8497089252144 54.62825086609996 L 626.8497089252144 326 Z" visibility="hidden"></path><path fill="none" d="M 626.8497089252144 54.62825086609996 L 65.69169910904242 54.4573036812167 L 65.69169910904242 325.82905281511677 L 626.8497089252144 326 Z" visibility="hidden"></path><path fill="none" d="M 626.8497089252144 326.9691848183354 L 64.72251429070707 326.79794238788236 L 64.72251429070707 54.45700843564697 L 626.8497089252144 54.62825086609996 Z" visibility="hidden"></path></g></svg>