<?xml version="1.0" standalone="no"?><!DOCTYPE svg PUBLIC "-//W3C//DTD SVG 1.1//EN" "http://www.w3.org/Graphics/SVG/1.1/DTD/svg11.dtd"><svg xmlns:xlink="http://www.w3.org/1999/xlink" version="1.1" class="highcharts-root" style="font-family: Oswald; font-size: 12px;" xmlns="http://www.w3.org/2000/svg" width="650" height="400" viewBox="0 0 650 400" aria-label="Interactive chart" aria-hidden="false"><desc aria-hidden="true">Created with Highcharts 10.3.1</desc><defs aria-hidden="true"><clipPath id="highcharts-kb8c72h-583-"><rect x="0" y="0" width="650" height="400" fill="none"></rect></clipPath><clipPath id="highcharts-kb8c72h-596-"><rect x="0" y="0" width="650" height="400" fill="none"></rect></clipPath></defs><rect fill="#ffffff" class="highcharts-background" x="0" y="0" width="650" height="400" rx="0" ry="0" aria-hidden="true"></rect><g stroke-linejoin="round" class="highcharts-3d-frame highcharts-3d-frame-bottom" data-z-index="-1000" aria-hidden="true"><path fill="none" d="M 63.73822372982954 326.79764630123566 L 626.8340094271862 326.969183796381 L 635.3095096398827 318.49497444341887 L 72.21372394252609 318.3234369482735 Z" visibility="hidden"></path><path fill="none" d="M 73.16599057281388 317.37146298667784 L 635.2925924737895 317.54270523656476 L 626.8340094271862 326 L 64.70740752621055 325.8287577501131 Z"></path><path fill="none" d="M 63.73822372982954 326.79764630123566 L 72.21372394252609 318.3234369482735 L 73.16599057281388 317.37146298667784 L 64.70740752621055 325.8287577501131 Z" visibility="hidden"></path><path fill="none" d="M 635.3095096398827 318.49497444341887 L 626.8340094271862 326.969183796381 L 626.8340094271862 326 L 635.2925924737895 317.54270523656476 Z"></path><path fill="none" d="M 626.8340094271862 326.969183796381 L 63.73822372982954 326.79764630123566 L 64.70740752621055 325.8287577501131 L 626.8340094271862 326 Z"></path><path fill="none" d="M 72.21372394252609 318.3234369482735 L 635.3095096398827 318.49497444341887 L 635.2925924737895 317.54270523656476 L 73.16599057281388 317.37146298667784 Z" visibility="hidden"></path></g><g stroke-linejoin="round" class="highcharts-3d-frame highcharts-3d-frame-left" data-z-index="-1000" aria-hidden="true"><path fill="none" d="M 63.73822372982954 326.79764630123566 L 64.70740752621055 325.8287577501131 L 73.16599057281388 317.37146298667784 L 72.21372394252609 318.3234369482735 Z" visibility="hidden"></path><path fill="none" d="M 72.21372394252609 45.98279016521471 L 73.16599057281388 46 L 64.70740752621055 54.45729476343527 L 63.73822372982954 54.45699951817684 Z"></path><path fill="none" d="M 72.21372394252609 318.3234369482735 L 72.21372394252609 45.98279016521471 L 63.73822372982954 54.45699951817684 L 63.73822372982954 326.79764630123566 Z" visibility="hidden"></path><path fill="none" d="M 73.16599057281388 46 L 73.16599057281388 317.37146298667784 L 64.70740752621055 325.8287577501131 L 64.70740752621055 54.45729476343527 Z"></path><path fill="none" d="M 63.73822372982954 326.79764630123566 L 63.73822372982954 54.45699951817684 L 64.70740752621055 54.45729476343527 L 64.70740752621055 325.8287577501131 Z"></path><path fill="none" d="M 72.21372394252609 45.98279016521471 L 72.21372394252609 318.3234369482735 L 73.16599057281388 317.37146298667784 L 73.16599057281388 46 Z" visibility="hidden"></path></g><g stroke-linejoin="round" class="highcharts-3d-frame highcharts-3d-frame-back" data-z-index="-1000" aria-hidden="true"><path fill="none" d="M 635.3095096398827 318.49497444341887 L 72.21372394252609 318.3234369482735 L 73.16599057281388 317.37146298667784 L 635.2925924737895 317.54270523656476 Z" visibility="hidden"></path><path fill="none" d="M 72.21372394252609 45.98279016521471 L 635.3095096398827 46.154327660360025 L 635.2925924737895 46.171242249886916 L 73.16599057281388 46 Z"></path><path fill="none" d="M 72.21372394252609 318.3234369482735 L 72.21372394252609 45.98279016521471 L 73.16599057281388 46 L 73.16599057281388 317.37146298667784 Z" visibility="hidden"></path><path fill="none" d="M 635.3095096398827 46.154327660360025 L 635.3095096398827 318.49497444341887 L 635.2925924737895 317.54270523656476 L 635.2925924737895 46.171242249886916 Z"></path><path fill="none" d="M 73.16599057281388 46 L 635.2925924737895 46.171242249886916 L 635.2925924737895 317.54270523656476 L 73.16599057281388 317.37146298667784 Z"></path><path fill="none" d="M 72.21372394252609 318.3234369482735 L 635.3095096398827 318.49497444341887 L 635.3095096398827 46.154327660360025 L 72.21372394252609 45.98279016521471 Z" visibility="hidden"></path></g><rect fill="none" class="highcharts-plot-background" x="60" y="46" width="580" height="280" aria-hidden="true"></rect><g class="highcharts-pane-group" data-z-index="0" aria-hidden="true"></g><g class="highcharts-grid highcharts-xaxis-grid" data-z-index="1" aria-hidden="true"><path fill="none" stroke="#e6e6e6" stroke-width="1" stroke-dasharray="none" data-z-index="1" class="highcharts-grid-line" d="M 119.20222090091102 46.014024149775224 L 119.20222090091102 317.3854871364531 M 110.7436378543077 325.84278189988834 L 119.20222090091102 317.3854871364531" opacity="1"></path><path fill="none" stroke="#e6e6e6" stroke-width="1" stroke-dasharray="none" data-z-index="1" class="highcharts-grid-line" d="M 166.69222692357963 46.02849116743809 L 166.69222692357963 317.3999541541159 M 158.23364387697632 325.85724891755115 L 166.69222692357963 317.3999541541159" opacity="1"></path><path fill="none" stroke="#e6e6e6" stroke-width="1" stroke-dasharray="none" data-z-index="1" class="highcharts-grid-line" d="M 213.21304914986726 46.04266293984253 L 213.21304914986726 317.41412592652034 M 204.75446610326398 325.8714206899556 L 213.21304914986726 317.41412592652034" opacity="1"></path><path fill="none" stroke="#e6e6e6" stroke-width="1" stroke-dasharray="none" data-z-index="1" class="highcharts-grid-line" d="M 259.7338713761549 46.05683471224694 L 259.7338713761549 317.4282976989248 M 251.27528832955159 325.88559246236 L 259.7338713761549 317.4282976989248" opacity="1"></path><path fill="none" stroke="#e6e6e6" stroke-width="1" stroke-dasharray="none" data-z-index="1" class="highcharts-grid-line" d="M 307.2238773988235 46.071301729909806 L 307.2238773988235 317.44276471658765 M 298.7652943522202 325.9000594800229 L 307.2238773988235 317.44276471658765" opacity="1"></path><path fill="none" stroke="#e6e6e6" stroke-width="1" stroke-dasharray="none" data-z-index="1" class="highcharts-grid-line" d="M 353.74469962511114 46.085473502314244 L 353.74469962511114 317.456936488992 M 345.28611657850786 325.9142312524273 L 353.74469962511114 317.456936488992" opacity="1"></path><path fill="none" stroke="#e6e6e6" stroke-width="1" stroke-dasharray="none" data-z-index="1" class="highcharts-grid-line" d="M 400.2655218513988 46.09964527471868 L 400.2655218513988 317.4711082613965 M 391.8069388047955 325.92840302483177 L 400.2655218513988 317.4711082613965" opacity="1"></path><path fill="none" stroke="#e6e6e6" stroke-width="1" stroke-dasharray="none" data-z-index="1" class="highcharts-grid-line" d="M 447.7555278740674 46.11411229238152 L 447.7555278740674 317.4855752790594 M 439.29694482746413 325.94287004249463 L 447.7555278740674 317.4855752790594" opacity="1"></path><path fill="none" stroke="#e6e6e6" stroke-width="1" stroke-dasharray="none" data-z-index="1" class="highcharts-grid-line" d="M 494.276350100355 46.12828406478599 L 494.276350100355 317.4997470514638 M 485.8177670537517 325.95704181489907 L 494.276350100355 317.4997470514638" opacity="1"></path><path fill="none" stroke="#e6e6e6" stroke-width="1" stroke-dasharray="none" data-z-index="1" class="highcharts-grid-line" d="M 540.7971723266427 46.1424558371904 L 540.7971723266427 317.51391882386827 M 532.3385892800394 325.9712135873035 L 540.7971723266427 317.51391882386827" opacity="1"></path><path fill="none" stroke="#e6e6e6" stroke-width="1" stroke-dasharray="none" data-z-index="1" class="highcharts-grid-line" d="M 588.2871783493113 46.15692285485326 L 588.2871783493113 317.5283858415311 M 579.828595302708 325.9856806049663 L 588.2871783493113 317.5283858415311" opacity="1"></path><path fill="none" stroke="#e6e6e6" stroke-width="1" stroke-dasharray="none" data-z-index="1" class="highcharts-grid-line" d="M 635.77718437198 46.1713898725161 L 635.77718437198 317.54285285919394 M 627.3186013253767 326.0001476226292 L 635.77718437198 317.54285285919394" opacity="1"></path><path fill="none" stroke="#e6e6e6" stroke-width="1" stroke-dasharray="none" data-z-index="1" class="highcharts-grid-line" d="M 72.68139867462338 45.999852377370814 L 72.68139867462338 317.37131536404866 M 64.22281562802004 325.8286101274839 L 72.68139867462338 317.37131536404866" opacity="1"></path></g><g class="highcharts-grid highcharts-zaxis-grid" data-z-index="1" aria-hidden="true"></g><g class="highcharts-grid highcharts-yaxis-grid" data-z-index="1" aria-hidden="true"><path fill="none" stroke="#e6e6e6" stroke-width="1" stroke-dasharray="none" data-z-index="1" class="highcharts-grid-line" d="M 73.16599057281388 317.85605488486834 L 635.2925924737895 318.02729713475526 M 64.70740752621055 326.3133496483036 L 73.16599057281388 317.85605488486834" opacity="1"></path><path fill="none" stroke="#e6e6e6" stroke-width="1" stroke-dasharray="none" data-z-index="1" class="highcharts-grid-line" d="M 73.16599057281388 250.01318913819887 L 635.2925924737895 250.18443138808578 M 64.70740752621055 258.4704839016341 L 73.16599057281388 250.01318913819887" opacity="1"></path><path fill="none" stroke="#e6e6e6" stroke-width="1" stroke-dasharray="none" data-z-index="1" class="highcharts-grid-line" d="M 73.16599057281388 182.17032339152942 L 635.2925924737895 182.3415656414163 M 64.70740752621055 190.62761815496467 L 73.16599057281388 182.17032339152942" opacity="1"></path><path fill="none" stroke="#e6e6e6" stroke-width="1" stroke-dasharray="none" data-z-index="1" class="highcharts-grid-line" d="M 73.16599057281388 114.32745764485995 L 635.2925924737895 114.49869989474685 M 64.70740752621055 122.7847524082952 L 73.16599057281388 114.32745764485995" opacity="1"></path><path fill="none" stroke="#e6e6e6" stroke-width="1" stroke-dasharray="none" data-z-index="1" class="highcharts-grid-line" d="M 73.16599057281388 45.5154081018095 L 635.2925924737895 45.686650351696414 M 64.70740752621055 53.97270286524477 L 73.16599057281388 45.5154081018095" opacity="1"></path></g><rect fill="none" class="highcharts-plot-border" data-z-index="1" x="60" y="46" width="580" height="280" aria-hidden="true"></rect><g class="highcharts-axis highcharts-xaxis" data-z-index="2" aria-hidden="true"><path fill="none" class="highcharts-axis-line" stroke="#ccd6eb" stroke-width="1" data-z-index="7" d="M 0 0"></path></g><g class="highcharts-axis highcharts-zaxis" data-z-index="2" aria-hidden="true"><path fill="none" class="highcharts-axis-line" data-z-index="7" d="M 0 0"></path></g><g class="highcharts-axis highcharts-yaxis" data-z-index="2" aria-hidden="true"><text x="29.811476037106786" data-z-index="7" text-anchor="middle" transform="translate(0,0) rotate(270 29.811476037106786 190.1430262567742)" class="highcharts-axis-title" style="color: rgb(102, 102, 102); fill: rgb(102, 102, 102);" y="190.1430262567742" z="12.646184714178332">Values</text><path fill="none" class="highcharts-axis-line" data-z-index="7" d="M 0 0"></path></g><g class="highcharts-series-group" data-z-index="3" aria-hidden="false"><g class="highcharts-series highcharts-series-0 highcharts-areaspline-series" data-z-index="0.1" opacity="1" transform="translate(60,46) scale(1 1)" clip-path="url(#highcharts-kb8c72h-596-)" aria-hidden="true"><path fill="rgb(148,209,61)" fill-opacity="0.35" d="M 28.129349272084823 215.38517038452238 C 28.129349272084823 215.38517038452238 56.235679367133436 184.87015098601174 74.9732327638325 184.87015098601174 C 93.71078616053042 184.87015098601174 103.07956285887936 191.66870774816925 121.81711625557728 191.66870774816925 C 140.55466965227905 191.66870774816925 149.92344635062992 167.25383819186425 168.6609997473317 150.97725848765813 C 187.39855314402956 134.70067878345537 196.7673298423785 110.28580922714704 215.50488323907638 110.28580922714704 C 234.24243663577818 110.28580922714704 243.61121333412902 140.82936900063888 262.34876673083085 140.82936900063888 C 281.08632012752867 140.82936900063888 290.4550968258776 49.25577043012565 309.19265022257554 49.25577043012565 C 327.9302036192734 49.25577043012565 337.2989803176224 110.32861978961876 356.0365337143203 110.32861978961876 C 374.7740871110221 110.32861978961876 384.14286380937295 49.28431080510681 402.88041720607475 49.28431080510681 C 421.6179706027726 49.28431080510681 430.9867473011216 147.6707363252681 449.72430069781944 147.6707363252681 C 468.4618540945174 147.6707363252681 477.8306307928663 88.65600523815766 496.5681841895642 66.27356761675532 C 515.305737586266 43.89112999534827 543.4120676813186 35.75854821824464 543.4120676813186 35.75854821824464 L 543.4120676813186 280 C 543.4120676813186 280 515.305737586266 280 496.5681841895642 280 C 477.8306307928663 280 468.4618540945174 280 449.72430069781944 280 C 430.9867473011216 280 421.6179706027726 280 402.88041720607475 280 C 384.14286380937295 280 374.7740871110221 280 356.0365337143203 280 C 337.2989803176224 280 327.9302036192734 280 309.19265022257554 280 C 290.4550968258776 280 281.08632012752867 280 262.34876673083085 280 C 243.61121333412902 280 234.24243663577818 280 215.50488323907638 280 C 196.7673298423785 280 187.39855314402956 280 168.6609997473317 280 C 149.92344635062992 280 140.55466965227905 280 121.81711625557728 280 C 103.07956285887936 280 93.71078616053042 280 74.9732327638325 280 C 56.235679367133436 280 28.129349272084823 280 28.129349272084823 280 Z" class="highcharts-area" data-z-index="0"></path><path fill="none" d="M 28.129349272084823 215.38517038452238 C 28.129349272084823 215.38517038452238 56.235679367133436 184.87015098601174 74.9732327638325 184.87015098601174 C 93.71078616053042 184.87015098601174 103.07956285887936 191.66870774816925 121.81711625557728 191.66870774816925 C 140.55466965227905 191.66870774816925 149.92344635062992 167.25383819186425 168.6609997473317 150.97725848765813 C 187.39855314402956 134.70067878345537 196.7673298423785 110.28580922714704 215.50488323907638 110.28580922714704 C 234.24243663577818 110.28580922714704 243.61121333412902 140.82936900063888 262.34876673083085 140.82936900063888 C 281.08632012752867 140.82936900063888 290.4550968258776 49.25577043012565 309.19265022257554 49.25577043012565 C 327.9302036192734 49.25577043012565 337.2989803176224 110.32861978961876 356.0365337143203 110.32861978961876 C 374.7740871110221 110.32861978961876 384.14286380937295 49.28431080510681 402.88041720607475 49.28431080510681 C 421.6179706027726 49.28431080510681 430.9867473011216 147.6707363252681 449.72430069781944 147.6707363252681 C 468.4618540945174 147.6707363252681 477.8306307928663 88.65600523815766 496.5681841895642 66.27356761675532 C 515.305737586266 43.89112999534827 543.4120676813186 35.75854821824464 543.4120676813186 35.75854821824464" class="highcharts-graph" data-z-index="1" stroke="#94d13d" stroke-width="2" stroke-linejoin="round" stroke-linecap="round"></path></g><g class="highcharts-markers highcharts-series-0 highcharts-areaspline-series" data-z-index="0.1" opacity="1" transform="translate(60,46) scale(1 1)" clip-path="none" aria-hidden="false"><path fill="#94d13d" d="M 28 219 A 4 4 0 1 1 28.003999999333335 218.99999800000018 Z" opacity="1" class="highcharts-point" tabindex="-1" role="img" aria-label="Jan, 19 units. Monthly Review." style="outline: none;"></path><path fill="#94d13d" d="M 74 189 A 4 4 0 1 1 74.00399999933333 188.99999800000018 Z" opacity="1" class="highcharts-point" tabindex="-1" role="img" aria-label="Feb, 28 units. Monthly Review." style="outline: none;"></path><path fill="#94d13d" d="M 121 196 A 4 4 0 1 1 121.00399999933333 195.99999800000018 Z" opacity="1" class="highcharts-point" tabindex="-1" role="img" aria-label="Mar, 26 units. Monthly Review." style="outline: none;"></path><path fill="#94d13d" d="M 168 155 A 4 4 0 1 1 168.00399999933333 154.99999800000018 Z" opacity="1" class="highcharts-point" tabindex="-1" role="img" aria-label="Apr, 38 units. Monthly Review." style="outline: none;"></path><path fill="#94d13d" d="M 215 114 A 4 4 0 1 1 215.00399999933333 113.99999800000016 Z" opacity="1" class="highcharts-point" tabindex="-1" role="img" aria-label="May, 50 units. Monthly Review." style="outline: none;"></path><path fill="#94d13d" d="M 262 145 A 4 4 0 1 1 262.00399999933336 144.99999800000018 Z" opacity="1" class="highcharts-point" tabindex="-1" role="img" aria-label="Jun, 41 units. Monthly Review." style="outline: none;"></path><path fill="#94d13d" d="M 309 53 A 4 4 0 1 1 309.00399999933336 52.99999800000017 Z" opacity="1" class="highcharts-point" tabindex="-1" role="img" aria-label="Jul, 68 units. Monthly Review." style="outline: none;"></path><path fill="#94d13d" d="M 356 114 A 4 4 0 1 1 356.00399999933336 113.99999800000016 Z" opacity="1" class="highcharts-point" tabindex="-1" role="img" aria-label="Aug, 50 units. Monthly Review." style="outline: none;"></path><path fill="#94d13d" d="M 402 53 A 4 4 0 1 1 402.00399999933336 52.99999800000017 Z" opacity="1" class="highcharts-point" tabindex="-1" role="img" aria-label="Sep, 68 units. Monthly Review." style="outline: none;"></path><path fill="#94d13d" d="M 449 152 A 4 4 0 1 1 449.00399999933336 151.99999800000018 Z" opacity="1" class="highcharts-point" tabindex="-1" role="img" aria-label="Oct, 39 units. Monthly Review." style="outline: none;"></path><path fill="#94d13d" d="M 496 70 A 4 4 0 1 1 496.00399999933336 69.99999800000016 Z" opacity="1" class="highcharts-point" tabindex="-1" role="img" aria-label="Nov, 63 units. Monthly Review." style="outline: none;"></path><path fill="#94d13d" d="M 543 40 A 4 4 0 1 1 543.0039999993334 39.99999800000017 Z" opacity="1" class="highcharts-point" tabindex="-1" role="img" aria-label="Dec, 72 units. Monthly Review." style="outline: none;"></path></g></g><text x="325" text-anchor="middle" class="highcharts-title" data-z-index="4" style="color: rgb(51, 51, 51); font-size: 18px; fill: rgb(51, 51, 51);" y="24" aria-hidden="true">Monthly Performance Review</text><text x="325" text-anchor="middle" class="highcharts-subtitle" data-z-index="4" style="color: rgb(102, 102, 102); fill: rgb(102, 102, 102);" y="45" aria-hidden="true"></text><text x="10" text-anchor="start" class="highcharts-caption" data-z-index="4" style="color: rgb(102, 102, 102); fill: rgb(102, 102, 102);" y="397" aria-hidden="true"></text><g class="highcharts-legend highcharts-no-tooltip" data-z-index="7" transform="translate(264,359)" aria-hidden="true"><rect fill="none" class="highcharts-legend-box" rx="0" ry="0" x="0" y="0" width="121" height="26"></rect><g data-z-index="1"><g><g class="highcharts-legend-item highcharts-areaspline-series highcharts-color-undefined highcharts-series-0" data-z-index="1" transform="translate(8,3)"><text x="21" text-anchor="start" data-z-index="2" y="15" style="color: rgb(51, 51, 51); cursor: pointer; font-size: 12px; font-weight: bold; fill: rgb(51, 51, 51);">Monthly Review</text><rect x="2" y="4" width="12" height="12" fill="#94d13d" rx="6" ry="6" class="highcharts-point" data-z-index="3"></rect></g></g></g></g><g class="highcharts-axis-labels highcharts-xaxis-labels" data-z-index="7" aria-hidden="true"><text x="88.1293492720813" text-anchor="middle" transform="translate(0,0)" style="color: rgb(102, 102, 102); cursor: default; font-size: 11px; fill: rgb(102, 102, 102);" y="344.2531900186632" z="14.605818720327932" opacity="1">Jan</text><text x="134.97323276383577" text-anchor="middle" transform="translate(0,0)" style="color: rgb(102, 102, 102); cursor: default; font-size: 11px; fill: rgb(102, 102, 102);" y="344.26746020615377" z="13.788280226529082" opacity="1">Feb</text><text x="181.8171162555805" text-anchor="middle" transform="translate(0,0)" style="color: rgb(102, 102, 102); cursor: default; font-size: 11px; fill: rgb(102, 102, 102);" y="344.28173039364435" z="12.970741732730403" opacity="1">Mar</text><text x="228.6609997473349" text-anchor="middle" transform="translate(0,0)" style="color: rgb(102, 102, 102); cursor: default; font-size: 11px; fill: rgb(102, 102, 102);" y="344.2960005811349" z="12.153203238931553" opacity="1">Apr</text><text x="275.50488323907956" text-anchor="middle" transform="translate(0,0)" style="color: rgb(102, 102, 102); cursor: default; font-size: 11px; fill: rgb(102, 102, 102);" y="344.3102707686255" z="11.335664745132874" opacity="1">May</text><text x="322.3487667308243" text-anchor="middle" transform="translate(0,0)" style="color: rgb(102, 102, 102); cursor: default; font-size: 11px; fill: rgb(102, 102, 102);" y="344.32454095611604" z="10.518126251334166" opacity="1">Jun</text><text x="369.1926502225788" text-anchor="middle" transform="translate(0,0)" style="color: rgb(102, 102, 102); cursor: default; font-size: 11px; fill: rgb(102, 102, 102);" y="344.3388111436067" z="9.700587757535317" opacity="1">Jul</text><text x="416.03653371432347" text-anchor="middle" transform="translate(0,0)" style="color: rgb(102, 102, 102); cursor: default; font-size: 11px; fill: rgb(102, 102, 102);" y="344.3530813310972" z="8.883049263736638" opacity="1">Aug</text><text x="462.8804172060682" text-anchor="middle" transform="translate(0,0)" style="color: rgb(102, 102, 102); cursor: default; font-size: 11px; fill: rgb(102, 102, 102);" y="344.3673515185878" z="8.065510769937958" opacity="1">Sep</text><text x="509.7243006978226" text-anchor="middle" transform="translate(0,0)" style="color: rgb(102, 102, 102); cursor: default; font-size: 11px; fill: rgb(102, 102, 102);" y="344.38162170607836" z="7.247972276139109" opacity="1">Oct</text><text x="556.5681841895675" text-anchor="middle" transform="translate(0,0)" style="color: rgb(102, 102, 102); cursor: default; font-size: 11px; fill: rgb(102, 102, 102);" y="344.3958918935689" z="6.430433782340401" opacity="1">Nov</text><text x="603.4120676813122" text-anchor="middle" transform="translate(0,0)" style="color: rgb(102, 102, 102); cursor: default; font-size: 11px; fill: rgb(102, 102, 102);" y="344.4101620810595" z="5.612895288541722" opacity="1">Dec</text></g><g class="highcharts-axis-labels highcharts-zaxis-labels" data-z-index="7" aria-hidden="true"></g><g class="highcharts-axis-labels highcharts-yaxis-labels" data-z-index="7" aria-hidden="true"><text x="50.16743607241739" text-anchor="end" transform="translate(0,0)" style="color: rgb(102, 102, 102); cursor: default; font-size: 11px; fill: rgb(102, 102, 102);" y="330.67467673201804" z="15.099173797693282" opacity="1">0</text><text x="50.16743607241739" text-anchor="end" transform="translate(0,0)" style="color: rgb(102, 102, 102); cursor: default; font-size: 11px; fill: rgb(102, 102, 102);" y="262.8318109853486" z="13.914972171168813" opacity="1">20</text><text x="50.16743607241739" text-anchor="end" transform="translate(0,0)" style="color: rgb(102, 102, 102); cursor: default; font-size: 11px; fill: rgb(102, 102, 102);" y="194.98894523867915" z="12.730770544644372" opacity="1">40</text><text x="50.16743607241739" text-anchor="end" transform="translate(0,0)" style="color: rgb(102, 102, 102); cursor: default; font-size: 11px; fill: rgb(102, 102, 102);" y="127.14607949200968" z="11.546568918119902" opacity="1">60</text><text x="50.16743607241739" text-anchor="end" transform="translate(0,0)" style="color: rgb(102, 102, 102); cursor: default; font-size: 11px; fill: rgb(102, 102, 102);" y="59.3032137453402" z="10.362367291595433" opacity="1">80</text></g><g stroke-linejoin="round" class="highcharts-3d-frame highcharts-3d-frame-top" data-z-index="1000" aria-hidden="true"><path fill="none" d="M 72.21372394252609 45.98279016521471 L 635.3095096398827 46.154327660360025 L 626.8340094271862 54.62853701332216 L 63.73822372982954 54.45699951817684 Z" visibility="hidden"></path><path fill="none" d="M 64.70740752621055 54.45729476343527 L 626.8340094271862 54.62853701332216 L 635.2925924737895 46.171242249886916 L 73.16599057281388 46 Z" visibility="hidden"></path><path fill="none" d="M 72.21372394252609 45.98279016521471 L 63.73822372982954 54.45699951817684 L 64.70740752621055 54.45729476343527 L 73.16599057281388 46 Z" visibility="hidden"></path><path fill="none" d="M 626.8340094271862 54.62853701332216 L 635.3095096398827 46.154327660360025 L 635.2925924737895 46.171242249886916 L 626.8340094271862 54.62853701332216 Z" visibility="hidden"></path><path fill="none" d="M 63.73822372982954 54.45699951817684 L 626.8340094271862 54.62853701332216 L 626.8340094271862 54.62853701332216 L 64.70740752621055 54.45729476343527 Z" visibility="hidden"></path><path fill="none" d="M 635.3095096398827 46.154327660360025 L 72.21372394252609 45.98279016521471 L 73.16599057281388 46 L 635.2925924737895 46.171242249886916 Z" visibility="hidden"></path></g><g stroke-linejoin="round" class="highcharts-3d-frame highcharts-3d-frame-right" data-z-index="1000" aria-hidden="true"><path fill="none" d="M 635.3095096398827 318.49497444341887 L 635.2925924737895 317.54270523656476 L 626.8340094271862 326 L 626.8340094271862 326.969183796381 Z" visibility="hidden"></path><path fill="none" d="M 626.8340094271862 54.62853701332216 L 626.8340094271862 54.62853701332216 L 635.2925924737895 46.171242249886916 L 635.3095096398827 46.154327660360025 Z" visibility="hidden"></path><path fill="none" d="M 626.8340094271862 54.62853701332216 L 626.8340094271862 326 L 635.2925924737895 317.54270523656476 L 635.2925924737895 46.171242249886916 Z" visibility="hidden"></path><path fill="none" d="M 626.8340094271862 326.969183796381 L 626.8340094271862 54.62853701332216 L 635.3095096398827 46.154327660360025 L 635.3095096398827 318.49497444341887 Z" visibility="hidden"></path><path fill="none" d="M 626.8340094271862 54.62853701332216 L 626.8340094271862 326.969183796381 L 626.8340094271862 326 L 626.8340094271862 54.62853701332216 Z" visibility="hidden"></path><path fill="none" d="M 635.3095096398827 318.49497444341887 L 635.3095096398827 46.154327660360025 L 635.2925924737895 46.171242249886916 L 635.2925924737895 317.54270523656476 Z" visibility="hidden"></path></g><g stroke-linejoin="round" class="highcharts-3d-frame highcharts-3d-frame-front" data-z-index="1000" aria-hidden="true"><path fill="none" d="M 63.73822372982954 326.79764630123566 L 626.8340094271862 326.969183796381 L 626.8340094271862 326 L 64.70740752621055 325.8287577501131 Z" visibility="hidden"></path><path fill="none" d="M 626.8340094271862 54.62853701332216 L 63.73822372982954 54.45699951817684 L 64.70740752621055 54.45729476343527 L 626.8340094271862 54.62853701332216 Z" visibility="hidden"></path><path fill="none" d="M 63.73822372982954 54.45699951817684 L 63.73822372982954 326.79764630123566 L 64.70740752621055 325.8287577501131 L 64.70740752621055 54.45729476343527 Z" visibility="hidden"></path><path fill="none" d="M 626.8340094271862 326.969183796381 L 626.8340094271862 54.62853701332216 L 626.8340094271862 54.62853701332216 L 626.8340094271862 326 Z" visibility="hidden"></path><path fill="none" d="M 626.8340094271862 54.62853701332216 L 64.70740752621055 54.45729476343527 L 64.70740752621055 325.8287577501131 L 626.8340094271862 326 Z" visibility="hidden"></path><path fill="none" d="M 626.8340094271862 326.969183796381 L 63.73822372982954 326.79764630123566 L 63.73822372982954 54.45699951817684 L 626.8340094271862 54.62853701332216 Z" visibility="hidden"></path></g></svg>