<?xml version="1.0" standalone="no"?><!DOCTYPE svg PUBLIC "-//W3C//DTD SVG 1.1//EN" "http://www.w3.org/Graphics/SVG/1.1/DTD/svg11.dtd"><svg xmlns:xlink="http://www.w3.org/1999/xlink" version="1.1" class="highcharts-root" style="font-family: Roboto; font-size: 12px;" xmlns="http://www.w3.org/2000/svg" width="650" height="400" viewBox="0 0 650 400" aria-label="Interactive chart" aria-hidden="false"><desc aria-hidden="true">Created with Highcharts 10.3.1</desc><defs aria-hidden="true"><clipPath id="highcharts-hu6ap2x-3355-"><rect x="0" y="0" width="650" height="400" fill="none"></rect></clipPath><clipPath id="highcharts-hu6ap2x-3368-"><rect x="0" y="0" width="650" height="400" fill="none"></rect></clipPath></defs><rect fill="#ffffff" class="highcharts-background" x="0" y="0" width="650" height="400" rx="0" ry="0" aria-hidden="true"></rect><g stroke-linejoin="round" class="highcharts-3d-frame highcharts-3d-frame-bottom" data-z-index="-1000" aria-hidden="true"><path fill="none" d="M 64.69117176058762 327.7980299018909 L 626.8800174677294 327.96929111328825 L 635.3564561654409 319.49414341824695 L 73.16761045829912 319.32288220684967 Z" visibility="hidden"></path><path fill="none" d="M 74.11998253227057 318.37080283397734 L 635.3395371261242 318.5417687674239 L 626.8800174677294 327 L 65.66046287387582 326.8290340665534 Z"></path><path fill="none" d="M 64.69117176058762 327.7980299018909 L 73.16761045829912 319.32288220684967 L 74.11998253227057 318.37080283397734 L 65.66046287387582 326.8290340665534 Z" visibility="hidden"></path><path fill="none" d="M 635.3564561654409 319.49414341824695 L 626.8800174677294 327.96929111328825 L 626.8800174677294 327 L 635.3395371261242 318.5417687674239 Z"></path><path fill="none" d="M 626.8800174677294 327.96929111328825 L 64.69117176058762 327.7980299018909 L 65.66046287387582 326.8290340665534 L 626.8800174677294 327 Z"></path><path fill="none" d="M 73.16761045829912 319.32288220684967 L 635.3564561654409 319.49414341824695 L 635.3395371261242 318.5417687674239 L 74.11998253227057 318.37080283397734 Z" visibility="hidden"></path></g><g stroke-linejoin="round" class="highcharts-3d-frame highcharts-3d-frame-left" data-z-index="-1000" aria-hidden="true"><path fill="none" d="M 64.69117176058762 327.7980299018909 L 65.66046287387582 326.8290340665534 L 74.11998253227057 318.37080283397734 L 73.16761045829912 319.32288220684967 Z" visibility="hidden"></path><path fill="none" d="M 73.16761045829912 45.98278825958414 L 74.11998253227057 45.99999999999997 L 65.66046287387582 54.45823123257611 L 64.69117176058762 54.45793595462541 Z"></path><path fill="none" d="M 73.16761045829912 319.32288220684967 L 73.16761045829912 45.98278825958414 L 64.69117176058762 54.45793595462541 L 64.69117176058762 327.7980299018909 Z" visibility="hidden"></path><path fill="none" d="M 74.11998253227057 45.99999999999997 L 74.11998253227057 318.37080283397734 L 65.66046287387582 326.8290340665534 L 65.66046287387582 54.45823123257611 Z"></path><path fill="none" d="M 64.69117176058762 327.7980299018909 L 64.69117176058762 54.45793595462541 L 65.66046287387582 54.45823123257611 L 65.66046287387582 326.8290340665534 Z"></path><path fill="none" d="M 73.16761045829912 45.98278825958414 L 73.16761045829912 319.32288220684967 L 74.11998253227057 318.37080283397734 L 74.11998253227057 45.99999999999997 Z" visibility="hidden"></path></g><g stroke-linejoin="round" class="highcharts-3d-frame highcharts-3d-frame-back" data-z-index="-1000" aria-hidden="true"><path fill="none" d="M 635.3564561654409 319.49414341824695 L 73.16761045829912 319.32288220684967 L 74.11998253227057 318.37080283397734 L 635.3395371261242 318.5417687674239 Z" visibility="hidden"></path><path fill="none" d="M 73.16761045829912 45.98278825958414 L 635.3564561654409 46.15404947098142 L 635.3395371261242 46.17096593344658 L 74.11998253227057 45.99999999999997 Z"></path><path fill="none" d="M 73.16761045829912 319.32288220684967 L 73.16761045829912 45.98278825958414 L 74.11998253227057 45.99999999999997 L 74.11998253227057 318.37080283397734 Z" visibility="hidden"></path><path fill="none" d="M 635.3564561654409 46.15404947098142 L 635.3564561654409 319.49414341824695 L 635.3395371261242 318.5417687674239 L 635.3395371261242 46.17096593344658 Z"></path><path fill="none" d="M 74.11998253227057 45.99999999999997 L 635.3395371261242 46.17096593344658 L 635.3395371261242 318.5417687674239 L 74.11998253227057 318.37080283397734 Z"></path><path fill="none" d="M 73.16761045829912 319.32288220684967 L 635.3564561654409 319.49414341824695 L 635.3564561654409 46.15404947098142 L 73.16761045829912 45.98278825958414 Z" visibility="hidden"></path></g><rect fill="none" class="highcharts-plot-background" x="61" y="46" width="579" height="281" aria-hidden="true"></rect><g class="highcharts-pane-group" data-z-index="0" aria-hidden="true"></g><g class="highcharts-grid highcharts-xaxis-grid" data-z-index="1" aria-hidden="true"><path fill="none" stroke="#e6e6e6" stroke-width="1" stroke-dasharray="none" data-z-index="1" class="highcharts-grid-line" d="M 120.16131041345886 46.014025702657506 L 120.16131041345886 318.3848285366348 M 111.70179075506417 326.843059769211 L 120.16131041345886 318.3848285366348" opacity="1"></path><path fill="none" stroke="#e6e6e6" stroke-width="1" stroke-dasharray="none" data-z-index="1" class="highcharts-grid-line" d="M 167.65657496457945 46.02849432224107 L 167.65657496457945 318.3992971562184 M 159.19705530618478 326.85752838879455 L 167.65657496457945 318.3992971562184" opacity="1"></path><path fill="none" stroke="#e6e6e6" stroke-width="1" stroke-dasharray="none" data-z-index="1" class="highcharts-grid-line" d="M 214.18254840241187 46.04266766387394 L 214.18254840241187 318.4134704978513 M 205.7230287440172 326.8717017304274 L 214.18254840241187 318.4134704978513" opacity="1"></path><path fill="none" stroke="#e6e6e6" stroke-width="1" stroke-dasharray="none" data-z-index="1" class="highcharts-grid-line" d="M 260.7085218402443 46.05684100550681 L 260.7085218402443 318.4276438394842 M 252.24900218184962 326.8858750720603 L 260.7085218402443 318.4276438394842" opacity="1"></path><path fill="none" stroke="#e6e6e6" stroke-width="1" stroke-dasharray="none" data-z-index="1" class="highcharts-grid-line" d="M 307.23449527807674 46.07101434713968 L 307.23449527807674 318.441817181117 M 298.77497561968204 326.9000484136932 L 307.23449527807674 318.441817181117" opacity="1"></path><path fill="none" stroke="#e6e6e6" stroke-width="1" stroke-dasharray="none" data-z-index="1" class="highcharts-grid-line" d="M 354.72975982919735 46.085482966723276 L 354.72975982919735 318.4562858007006 M 346.27024017080265 326.91451703327675 L 354.72975982919735 318.4562858007006" opacity="1"></path><path fill="none" stroke="#e6e6e6" stroke-width="1" stroke-dasharray="none" data-z-index="1" class="highcharts-grid-line" d="M 401.25573326702977 46.099656308356145 L 401.25573326702977 318.4704591423335 M 392.79621360863507 326.9286903749096 L 401.25573326702977 318.4704591423335" opacity="1"></path><path fill="none" stroke="#e6e6e6" stroke-width="1" stroke-dasharray="none" data-z-index="1" class="highcharts-grid-line" d="M 447.78170670486224 46.11382964998904 L 447.78170670486224 318.4846324839664 M 439.3221870464675 326.9428637165425 L 447.78170670486224 318.4846324839664" opacity="1"></path><path fill="none" stroke="#e6e6e6" stroke-width="1" stroke-dasharray="none" data-z-index="1" class="highcharts-grid-line" d="M 494.3076801426946 46.12800299162191 L 494.3076801426946 318.4988058255992 M 485.84816048429997 326.9570370581754 L 494.3076801426946 318.4988058255992" opacity="1"></path><path fill="none" stroke="#e6e6e6" stroke-width="1" stroke-dasharray="none" data-z-index="1" class="highcharts-grid-line" d="M 541.8029446938152 46.14247161120548 L 541.8029446938152 318.5132744451828 M 533.3434250354205 326.97150567775896 L 541.8029446938152 318.5132744451828" opacity="1"></path><path fill="none" stroke="#e6e6e6" stroke-width="1" stroke-dasharray="none" data-z-index="1" class="highcharts-grid-line" d="M 588.3289181316477 46.15664495283835 L 588.3289181316477 318.5274477868157 M 579.869398473253 326.9856790193918 L 588.3289181316477 318.5274477868157" opacity="1"></path><path fill="none" stroke="#e6e6e6" stroke-width="1" stroke-dasharray="none" data-z-index="1" class="highcharts-grid-line" d="M 635.8241826827683 46.171113572421916 L 635.8241826827683 318.54191640639925 M 627.3646630243736 327.00014763897536 L 635.8241826827683 318.54191640639925" opacity="1"></path><path fill="none" stroke="#e6e6e6" stroke-width="1" stroke-dasharray="none" data-z-index="1" class="highcharts-grid-line" d="M 73.63533697562644 45.99985236102461 L 73.63533697562644 318.370655195002 M 65.17581731723169 326.8288864275781 L 73.63533697562644 318.370655195002" opacity="1"></path></g><g class="highcharts-grid highcharts-zaxis-grid" data-z-index="1" aria-hidden="true"></g><g class="highcharts-grid highcharts-yaxis-grid" data-z-index="1" aria-hidden="true"><path fill="none" stroke="#e6e6e6" stroke-width="1" stroke-dasharray="none" data-z-index="1" class="highcharts-grid-line" d="M 74.11998253227057 318.8554483906214 L 635.3395371261242 319.026414324068 M 65.66046287387582 327.3136796231975 L 74.11998253227057 318.8554483906214" opacity="1"></path><path fill="none" stroke="#e6e6e6" stroke-width="1" stroke-dasharray="none" data-z-index="1" class="highcharts-grid-line" d="M 74.11998253227057 251.0050704604491 L 635.3395371261242 251.1760363938957 M 65.66046287387582 259.46330169302524 L 74.11998253227057 251.0050704604491" opacity="1"></path><path fill="none" stroke="#e6e6e6" stroke-width="1" stroke-dasharray="none" data-z-index="1" class="highcharts-grid-line" d="M 74.11998253227057 183.1546925302768 L 635.3395371261242 183.3256584637234 M 65.66046287387582 191.61292376285294 L 74.11998253227057 183.1546925302768" opacity="1"></path><path fill="none" stroke="#e6e6e6" stroke-width="1" stroke-dasharray="none" data-z-index="1" class="highcharts-grid-line" d="M 74.11998253227057 114.33502348681635 L 635.3395371261242 114.50598942026295 M 65.66046287387582 122.79325471939248 L 74.11998253227057 114.33502348681635" opacity="1"></path><path fill="none" stroke="#e6e6e6" stroke-width="1" stroke-dasharray="none" data-z-index="1" class="highcharts-grid-line" d="M 74.11998253227057 45.515354443355875 L 635.3395371261242 45.686320376802485 M 65.66046287387582 53.973585675932014 L 74.11998253227057 45.515354443355875" opacity="1"></path></g><rect fill="none" class="highcharts-plot-border" data-z-index="1" x="61" y="46" width="579" height="281" aria-hidden="true"></rect><g class="highcharts-axis highcharts-xaxis" data-z-index="2" aria-hidden="true"><path fill="none" class="highcharts-axis-line" stroke="#ccd6eb" stroke-width="1" data-z-index="7" d="M 0 0"></path></g><g class="highcharts-axis highcharts-zaxis" data-z-index="2" aria-hidden="true"><path fill="none" class="highcharts-axis-line" data-z-index="7" d="M 0 0"></path></g><g class="highcharts-axis highcharts-yaxis" data-z-index="2" aria-hidden="true"><text x="29.442836568465054" data-z-index="7" text-anchor="middle" transform="translate(0,0) rotate(270 29.442836568465054 190.64363264956475)" class="highcharts-axis-title" style="color: rgb(102, 102, 102); fill: rgb(102, 102, 102);" y="190.64363264956475" z="12.611444494472835">Values</text><path fill="none" class="highcharts-axis-line" data-z-index="7" d="M 0 0"></path></g><g class="highcharts-series-group" data-z-index="3" aria-hidden="false"><g class="highcharts-series highcharts-series-0 highcharts-areaspline-series" data-z-index="0.1" opacity="1" transform="translate(61,46) scale(1 1)" clip-path="url(#highcharts-hu6ap2x-3368-)" aria-hidden="true"><path fill="rgb(209,82,43)" fill-opacity="0.35" d="M 28.044610981953042 205.93418686776994 C 28.044610981953042 205.93418686776994 56.10558871164574 205.93418686776994 74.81290719810752 195.73452892261633 C 93.52022568456933 185.53487097746273 102.87388492780022 120.84680530439311 121.581203414262 120.84680530439311 C 140.2885219007238 120.84680530439311 149.64218114395467 233.2140086345293 168.34949963041646 233.2140086345293 C 187.05681811687825 233.2140086345293 196.41047736010916 178.7540952288544 215.11779584657094 178.7540952288544 C 233.8251143330327 178.7540952288544 243.1787735762636 219.62396281507154 261.8860920627254 219.62396281507154 C 280.59341054918724 219.62396281507154 289.9470697924181 110.68988884260116 308.6543882788799 110.68988884260116 C 327.36170676534164 110.68988884260116 336.7153660085725 178.79683671221605 355.42268449503433 178.79683671221605 C 374.1300029814961 178.79683671221605 383.483662224727 178.79683671221605 402.19098071118884 165.19254373163773 C 420.8982991976507 151.5882507510594 430.2519584408816 135.24030371657256 448.95927692734335 110.73263032596283 C 467.6665954138051 86.22495693535309 477.020254657036 56.258469759167355 495.7275731434978 42.65417677858903 C 514.4348916299596 29.04988379801071 542.4958693596523 29.04988379801071 542.4958693596523 29.04988379801071 L 542.4958693596523 281 C 542.4958693596523 281 514.4348916299596 281 495.7275731434978 281 C 477.020254657036 281 467.6665954138051 281 448.95927692734335 281 C 430.2519584408816 281 420.8982991976507 281 402.19098071118884 281 C 383.483662224727 281 374.1300029814961 281 355.42268449503433 281 C 336.7153660085725 281 327.36170676534164 281 308.6543882788799 281 C 289.9470697924181 281 280.59341054918724 281 261.8860920627254 281 C 243.1787735762636 281 233.8251143330327 281 215.11779584657094 281 C 196.41047736010916 281 187.05681811687825 281 168.34949963041646 281 C 149.64218114395467 281 140.2885219007238 281 121.581203414262 281 C 102.87388492780022 281 93.52022568456933 281 74.81290719810752 281 C 56.10558871164574 281 28.044610981953042 281 28.044610981953042 281 Z" class="highcharts-area" data-z-index="0"></path><path fill="none" d="M 28.044610981953042 205.93418686776994 C 28.044610981953042 205.93418686776994 56.10558871164574 205.93418686776994 74.81290719810752 195.73452892261633 C 93.52022568456933 185.53487097746273 102.87388492780022 120.84680530439311 121.581203414262 120.84680530439311 C 140.2885219007238 120.84680530439311 149.64218114395467 233.2140086345293 168.34949963041646 233.2140086345293 C 187.05681811687825 233.2140086345293 196.41047736010916 178.7540952288544 215.11779584657094 178.7540952288544 C 233.8251143330327 178.7540952288544 243.1787735762636 219.62396281507154 261.8860920627254 219.62396281507154 C 280.59341054918724 219.62396281507154 289.9470697924181 110.68988884260116 308.6543882788799 110.68988884260116 C 327.36170676534164 110.68988884260116 336.7153660085725 178.79683671221605 355.42268449503433 178.79683671221605 C 374.1300029814961 178.79683671221605 383.483662224727 178.79683671221605 402.19098071118884 165.19254373163773 C 420.8982991976507 151.5882507510594 430.2519584408816 135.24030371657256 448.95927692734335 110.73263032596283 C 467.6665954138051 86.22495693535309 477.020254657036 56.258469759167355 495.7275731434978 42.65417677858903 C 514.4348916299596 29.04988379801071 542.4958693596523 29.04988379801071 542.4958693596523 29.04988379801071" class="highcharts-graph" data-z-index="1" stroke="#d1522b" stroke-width="2" stroke-linejoin="round" stroke-linecap="round"></path></g><g class="highcharts-markers highcharts-series-0 highcharts-areaspline-series" data-z-index="0.1" opacity="1" transform="translate(61,46) scale(1 1)" clip-path="none" aria-hidden="false"><path fill="#d1522b" d="M 28 210 A 4 4 0 1 1 28.003999999333335 209.99999800000018 Z" opacity="1" class="highcharts-point" tabindex="-1" role="img" aria-label="Jan, 22 units. Month Review." style="outline: none;"></path><path fill="#d1522b" d="M 74 200 A 4 4 0 1 1 74.00399999933333 199.99999800000018 Z" opacity="1" class="highcharts-point" tabindex="-1" role="img" aria-label="Feb, 25 units. Month Review." style="outline: none;"></path><path fill="#d1522b" d="M 121 125 A 4 4 0 1 1 121.00399999933333 124.99999800000016 Z" opacity="1" class="highcharts-point" tabindex="-1" role="img" aria-label="Mar, 47 units. Month Review." style="outline: none;"></path><path fill="#d1522b" d="M 168 237 A 4 4 0 1 1 168.00399999933333 236.99999800000018 Z" opacity="1" class="highcharts-point" tabindex="-1" role="img" aria-label="Apr, 14 units. Month Review." style="outline: none;"></path><path fill="#d1522b" d="M 215 183 A 4 4 0 1 1 215.00399999933333 182.99999800000018 Z" opacity="1" class="highcharts-point" tabindex="-1" role="img" aria-label="May, 30 units. Month Review." style="outline: none;"></path><path fill="#d1522b" d="M 261 224 A 4 4 0 1 1 261.00399999933336 223.99999800000018 Z" opacity="1" class="highcharts-point" tabindex="-1" role="img" aria-label="June, 18 units. Month Review." style="outline: none;"></path><path fill="#d1522b" d="M 308 115 A 4 4 0 1 1 308.00399999933336 114.99999800000016 Z" opacity="1" class="highcharts-point" tabindex="-1" role="img" aria-label="Jul, 50 units. Month Review." style="outline: none;"></path><path fill="#d1522b" d="M 355 183 A 4 4 0 1 1 355.00399999933336 182.99999800000018 Z" opacity="1" class="highcharts-point" tabindex="-1" role="img" aria-label="Aug, 30 units. Month Review." style="outline: none;"></path><path fill="#d1522b" d="M 402 169 A 4 4 0 1 1 402.00399999933336 168.99999800000018 Z" opacity="1" class="highcharts-point" tabindex="-1" role="img" aria-label="Sep, 34 units. Month Review." style="outline: none;"></path><path fill="#d1522b" d="M 448 115 A 4 4 0 1 1 448.00399999933336 114.99999800000016 Z" opacity="1" class="highcharts-point" tabindex="-1" role="img" aria-label="Oct, 50 units. Month Review." style="outline: none;"></path><path fill="#d1522b" d="M 495 47 A 4 4 0 1 1 495.00399999933336 46.99999800000017 Z" opacity="1" class="highcharts-point" tabindex="-1" role="img" aria-label="Nov, 70 units. Month Review." style="outline: none;"></path><path fill="#d1522b" d="M 542 33 A 4 4 0 1 1 542.0039999993334 32.99999800000017 Z" opacity="1" class="highcharts-point" tabindex="-1" role="img" aria-label="Dec, 74 units. Month Review." style="outline: none;"></path></g></g><text x="325" text-anchor="middle" class="highcharts-title" data-z-index="4" style="color: rgb(51, 51, 51); font-size: 18px; fill: rgb(51, 51, 51);" y="24" aria-hidden="true">Monthly Performance Review</text><text x="325" text-anchor="middle" class="highcharts-subtitle" data-z-index="4" style="color: rgb(102, 102, 102); fill: rgb(102, 102, 102);" y="45" aria-hidden="true"></text><text x="10" text-anchor="start" class="highcharts-caption" data-z-index="4" style="color: rgb(102, 102, 102); fill: rgb(102, 102, 102);" y="397" aria-hidden="true"></text><g class="highcharts-legend highcharts-no-tooltip" data-z-index="7" transform="translate(269,359)" aria-hidden="true"><rect fill="none" class="highcharts-legend-box" rx="0" ry="0" x="0" y="0" width="112" height="26"></rect><g data-z-index="1"><g><g class="highcharts-legend-item highcharts-areaspline-series highcharts-color-undefined highcharts-series-0" data-z-index="1" transform="translate(8,3)"><text x="21" text-anchor="start" data-z-index="2" y="15" style="color: rgb(51, 51, 51); cursor: pointer; font-size: 12px; font-weight: bold; fill: rgb(51, 51, 51);">Month Review</text><rect x="2" y="4" width="12" height="12" fill="#d1522b" rx="6" ry="6" class="highcharts-point" data-z-index="3"></rect></g></g></g></g><g class="highcharts-axis-labels highcharts-xaxis-labels" data-z-index="7" aria-hidden="true"><text x="89.04461098195304" text-anchor="middle" transform="translate(0,0)" style="color: rgb(102, 102, 102); cursor: default; font-size: 11px; fill: rgb(102, 102, 102);" y="345.2554941537551" z="14.58045986150995" opacity="1">Jan</text><text x="135.81290719810752" text-anchor="middle" transform="translate(0,0)" style="color: rgb(102, 102, 102); cursor: default; font-size: 11px; fill: rgb(102, 102, 102);" y="345.26974131487566" z="13.764240547566345" opacity="1">Feb</text><text x="182.581203414262" text-anchor="middle" transform="translate(0,0)" style="color: rgb(102, 102, 102); cursor: default; font-size: 11px; fill: rgb(102, 102, 102);" y="345.2839884759962" z="12.94802123362274" opacity="1">Mar</text><text x="229.34949963041646" text-anchor="middle" transform="translate(0,0)" style="color: rgb(102, 102, 102); cursor: default; font-size: 11px; fill: rgb(102, 102, 102);" y="345.2982356371167" z="12.131801919679134" opacity="1">Apr</text><text x="276.1177958465709" text-anchor="middle" transform="translate(0,0)" style="color: rgb(102, 102, 102); cursor: default; font-size: 11px; fill: rgb(102, 102, 102);" y="345.3124827982373" z="11.315582605735557" opacity="1">May</text><text x="322.88609206272537" text-anchor="middle" transform="translate(0,0)" style="color: rgb(102, 102, 102); cursor: default; font-size: 11px; fill: rgb(102, 102, 102);" y="345.32672995935786" z="10.499363291791951" opacity="1">June</text><text x="369.6543882788799" text-anchor="middle" transform="translate(0,0)" style="color: rgb(102, 102, 102); cursor: default; font-size: 11px; fill: rgb(102, 102, 102);" y="345.3409771204783" z="9.683143977848346" opacity="1">Jul</text><text x="416.42268449503433" text-anchor="middle" transform="translate(0,0)" style="color: rgb(102, 102, 102); cursor: default; font-size: 11px; fill: rgb(102, 102, 102);" y="345.3552242815989" z="8.86692466390474" opacity="1">Aug</text><text x="463.1909807111888" text-anchor="middle" transform="translate(0,0)" style="color: rgb(102, 102, 102); cursor: default; font-size: 11px; fill: rgb(102, 102, 102);" y="345.3694714427195" z="8.050705349961163" opacity="1">Sep</text><text x="509.9592769273433" text-anchor="middle" transform="translate(0,0)" style="color: rgb(102, 102, 102); cursor: default; font-size: 11px; fill: rgb(102, 102, 102);" y="345.38371860384007" z="7.234486036017586" opacity="1">Oct</text><text x="556.7275731434977" text-anchor="middle" transform="translate(0,0)" style="color: rgb(102, 102, 102); cursor: default; font-size: 11px; fill: rgb(102, 102, 102);" y="345.3979657649606" z="6.41826672207398" opacity="1">Nov</text><text x="603.4958693596523" text-anchor="middle" transform="translate(0,0)" style="color: rgb(102, 102, 102); cursor: default; font-size: 11px; fill: rgb(102, 102, 102);" y="345.4122129260811" z="5.602047408130403" opacity="1">Dec</text></g><g class="highcharts-axis-labels highcharts-zaxis-labels" data-z-index="7" aria-hidden="true"></g><g class="highcharts-axis-labels highcharts-yaxis-labels" data-z-index="7" aria-hidden="true"><text x="51.11888142126429" text-anchor="end" transform="translate(0,0)" style="color: rgb(102, 102, 102); cursor: default; font-size: 11px; fill: rgb(102, 102, 102);" y="331.6754896329943" z="15.073164715065701" opacity="1">0</text><text x="51.11888142126429" text-anchor="end" transform="translate(0,0)" style="color: rgb(102, 102, 102); cursor: default; font-size: 11px; fill: rgb(102, 102, 102);" y="263.825111702822" z="13.888831962890436" opacity="1">20</text><text x="51.11888142126429" text-anchor="end" transform="translate(0,0)" style="color: rgb(102, 102, 102); cursor: default; font-size: 11px; fill: rgb(102, 102, 102);" y="195.00544265936156" z="12.687580171398395" opacity="1">40</text><text x="51.11888142126429" text-anchor="end" transform="translate(0,0)" style="color: rgb(102, 102, 102); cursor: default; font-size: 11px; fill: rgb(102, 102, 102);" y="127.15506472918925" z="11.503247419223129" opacity="1">60</text><text x="51.11888142126429" text-anchor="end" transform="translate(0,0)" style="color: rgb(102, 102, 102); cursor: default; font-size: 11px; fill: rgb(102, 102, 102);" y="59.304686799016935" z="10.318914667047864" opacity="1">80</text></g><g stroke-linejoin="round" class="highcharts-3d-frame highcharts-3d-frame-top" data-z-index="1000" aria-hidden="true"><path fill="none" d="M 73.16761045829912 45.98278825958414 L 635.3564561654409 46.15404947098142 L 626.8800174677294 54.62919716602269 L 64.69117176058762 54.45793595462541 Z" visibility="hidden"></path><path fill="none" d="M 65.66046287387582 54.45823123257611 L 626.8800174677294 54.62919716602269 L 635.3395371261242 46.17096593344658 L 74.11998253227057 45.99999999999997 Z" visibility="hidden"></path><path fill="none" d="M 73.16761045829912 45.98278825958414 L 64.69117176058762 54.45793595462541 L 65.66046287387582 54.45823123257611 L 74.11998253227057 45.99999999999997 Z" visibility="hidden"></path><path fill="none" d="M 626.8800174677294 54.62919716602269 L 635.3564561654409 46.15404947098142 L 635.3395371261242 46.17096593344658 L 626.8800174677294 54.62919716602269 Z" visibility="hidden"></path><path fill="none" d="M 64.69117176058762 54.45793595462541 L 626.8800174677294 54.62919716602269 L 626.8800174677294 54.62919716602269 L 65.66046287387582 54.45823123257611 Z" visibility="hidden"></path><path fill="none" d="M 635.3564561654409 46.15404947098142 L 73.16761045829912 45.98278825958414 L 74.11998253227057 45.99999999999997 L 635.3395371261242 46.17096593344658 Z" visibility="hidden"></path></g><g stroke-linejoin="round" class="highcharts-3d-frame highcharts-3d-frame-right" data-z-index="1000" aria-hidden="true"><path fill="none" d="M 635.3564561654409 319.49414341824695 L 635.3395371261242 318.5417687674239 L 626.8800174677294 327 L 626.8800174677294 327.96929111328825 Z" visibility="hidden"></path><path fill="none" d="M 626.8800174677294 54.62919716602269 L 626.8800174677294 54.62919716602269 L 635.3395371261242 46.17096593344658 L 635.3564561654409 46.15404947098142 Z" visibility="hidden"></path><path fill="none" d="M 626.8800174677294 54.62919716602269 L 626.8800174677294 327 L 635.3395371261242 318.5417687674239 L 635.3395371261242 46.17096593344658 Z" visibility="hidden"></path><path fill="none" d="M 626.8800174677294 327.96929111328825 L 626.8800174677294 54.62919716602269 L 635.3564561654409 46.15404947098142 L 635.3564561654409 319.49414341824695 Z" visibility="hidden"></path><path fill="none" d="M 626.8800174677294 54.62919716602269 L 626.8800174677294 327.96929111328825 L 626.8800174677294 327 L 626.8800174677294 54.62919716602269 Z" visibility="hidden"></path><path fill="none" d="M 635.3564561654409 319.49414341824695 L 635.3564561654409 46.15404947098142 L 635.3395371261242 46.17096593344658 L 635.3395371261242 318.5417687674239 Z" visibility="hidden"></path></g><g stroke-linejoin="round" class="highcharts-3d-frame highcharts-3d-frame-front" data-z-index="1000" aria-hidden="true"><path fill="none" d="M 64.69117176058762 327.7980299018909 L 626.8800174677294 327.96929111328825 L 626.8800174677294 327 L 65.66046287387582 326.8290340665534 Z" visibility="hidden"></path><path fill="none" d="M 626.8800174677294 54.62919716602269 L 64.69117176058762 54.45793595462541 L 65.66046287387582 54.45823123257611 L 626.8800174677294 54.62919716602269 Z" visibility="hidden"></path><path fill="none" d="M 64.69117176058762 54.45793595462541 L 64.69117176058762 327.7980299018909 L 65.66046287387582 326.8290340665534 L 65.66046287387582 54.45823123257611 Z" visibility="hidden"></path><path fill="none" d="M 626.8800174677294 327.96929111328825 L 626.8800174677294 54.62919716602269 L 626.8800174677294 54.62919716602269 L 626.8800174677294 327 Z" visibility="hidden"></path><path fill="none" d="M 626.8800174677294 54.62919716602269 L 65.66046287387582 54.45823123257611 L 65.66046287387582 326.8290340665534 L 626.8800174677294 327 Z" visibility="hidden"></path><path fill="none" d="M 626.8800174677294 327.96929111328825 L 64.69117176058762 327.7980299018909 L 64.69117176058762 54.45793595462541 L 626.8800174677294 54.62919716602269 Z" visibility="hidden"></path></g></svg>