<svg   id="chart"   width="1000"   height="500"   viewBox="0 0 1000 500"   xmlns="http://www.w3.org/2000/svg" >     		     <path d="  M0,500  h33.333333333333336  v-2.2316512766589085  q0,-3 -3,-3  h-27.333333333333336  q-3,0 -3,3  Z" fill="#45db0d" /> <path d="  M41.666666666666664,500  h33.333333333333336  v-12.015337699475026  q0,-3 -3,-3  h-27.333333333333336  q-3,0 -3,3  Z" fill="#45db0d" /> <path d="  M83.33333333333333,500  h33.333333333333336  v-40.92584502314719  q0,-3 -3,-3  h-27.333333333333336  q-3,0 -3,3  Z" fill="#45db0d" /> <path d="  M125,500  h33.333333333333336  v-52.39690256762037  q0,-3 -3,-3  h-27.333333333333336  q-3,0 -3,3  Z" fill="#45db0d" /> <path d="  M166.66666666666666,500  h33.333333333333336  v-76.91555719563536  q0,-3 -3,-3  h-27.333333333333336  q-3,0 -3,3  Z" fill="#45db0d" /> <path d="  M208.33333333333331,500  h33.333333333333336  v-73.25501594546881  q0,-3 -3,-3  h-27.333333333333336  q-3,0 -3,3  Z" fill="#45db0d" /> <path d="  M250,500  h33.333333333333336  v-83.26861156274163  q0,-3 -3,-3  h-27.333333333333336  q-3,0 -3,3  Z" fill="#45db0d" /> <path d="  M291.66666666666663,500  h33.333333333333336  v-113.46208771642864  q0,-3 -3,-3  h-27.333333333333336  q-3,0 -3,3  Z" fill="#45db0d" /> <path d="  M333.3333333333333,500  h33.333333333333336  v-119.16769771201632  q0,-3 -3,-3  h-27.333333333333336  q-3,0 -3,3  Z" fill="#45db0d" /> <path d="  M375,500  h33.333333333333336  v-150.20998404978297  q0,-3 -3,-3  h-27.333333333333336  q-3,0 -3,3  Z" fill="#45db0d" /> <path d="  M416.66666666666663,500  h33.333333333333336  v-168.13982339895188  q0,-3 -3,-3  h-27.333333333333336  q-3,0 -3,3  Z" fill="#45db0d" /> <path d="  M458.3333333333333,500  h33.333333333333336  v-218.6560464402205  q0,-3 -3,-3  h-27.333333333333336  q-3,0 -3,3  Z" fill="#45db0d" /> <path d="  M500,500  h33.333333333333336  v-173.42242890605894  q0,-3 -3,-3  h-27.333333333333336  q-3,0 -3,3  Z" fill="#45db0d" /> <path d="  M541.6666666666666,500  h33.333333333333336  v-249.4611273281921  q0,-3 -3,-3  h-27.333333333333336  q-3,0 -3,3  Z" fill="#45db0d" /> <path d="  M583.3333333333333,500  h33.333333333333336  v-194.20958046229856  q0,-3 -3,-3  h-27.333333333333336  q-3,0 -3,3  Z" fill="#45db0d" /> <path d="  M625,500  h33.333333333333336  v-182.4344535206153  q0,-3 -3,-3  h-27.333333333333336  q-3,0 -3,3  Z" fill="#45db0d" /> <path d="  M666.6666666666666,500  h33.333333333333336  v-260.8231348287836  q0,-3 -3,-3  h-27.333333333333336  q-3,0 -3,3  Z" fill="#45db0d" /> <path d="  M708.3333333333333,500  h33.333333333333336  v-303.12146252547586  q0,-3 -3,-3  h-27.333333333333336  q-3,0 -3,3  Z" fill="#45db0d" /> <path d="  M750,500  h33.333333333333336  v-245.9981720008539  q0,-3 -3,-3  h-27.333333333333336  q-3,0 -3,3  Z" fill="#45db0d" /> <path d="  M791.6666666666666,500  h33.333333333333336  v-304.5268053994837  q0,-3 -3,-3  h-27.333333333333336  q-3,0 -3,3  Z" fill="#45db0d" /> <path d="  M833.3333333333333,500  h33.333333333333336  v-346.46504010768206  q0,-3 -3,-3  h-27.333333333333336  q-3,0 -3,3  Z" fill="#45db0d" /> <path d="  M875,500  h33.333333333333336  v-413.5204248542756  q0,-3 -3,-3  h-27.333333333333336  q-3,0 -3,3  Z" fill="#45db0d" /> <path d="  M916.6666666666666,500  h33.333333333333336  v-469.49137016352165  q0,-3 -3,-3  h-27.333333333333336  q-3,0 -3,3  Z" fill="#45db0d" /> <path d="  M958.3333333333333,500  h33.333333333333336  v-311.72270014759084  q0,-3 -3,-3  h-27.333333333333336  q-3,0 -3,3  Z" fill="#45db0d" /> </svg>