<svg   id="chart"   width="1000"   height="500"   viewBox="0 0 1000 500"   xmlns="http://www.w3.org/2000/svg" >     		     <path d="  M0,500  h57.142857142857146  v--3.482339524177462  q0,-4 -4,-4  h-49.142857142857146  q-4,0 -4,4  Z" fill="#2fc918" /> <path d="  M71.42857142857143,500  h57.142857142857146  v-29.029150894005056  q0,-4 -4,-4  h-49.142857142857146  q-4,0 -4,4  Z" fill="#2fc918" /> <path d="  M142.85714285714286,500  h57.142857142857146  v-55.82376368820269  q0,-4 -4,-4  h-49.142857142857146  q-4,0 -4,4  Z" fill="#2fc918" /> <path d="  M214.28571428571428,500  h57.142857142857146  v-82.57844138575882  q0,-4 -4,-4  h-49.142857142857146  q-4,0 -4,4  Z" fill="#2fc918" /> <path d="  M285.7142857142857,500  h57.142857142857146  v-83.80842951224463  q0,-4 -4,-4  h-49.142857142857146  q-4,0 -4,4  Z" fill="#2fc918" /> <path d="  M357.14285714285717,500  h57.142857142857146  v-135.96174108769378  q0,-4 -4,-4  h-49.142857142857146  q-4,0 -4,4  Z" fill="#2fc918" /> <path d="  M428.57142857142856,500  h57.142857142857146  v-123.9476427165261  q0,-4 -4,-4  h-49.142857142857146  q-4,0 -4,4  Z" fill="#2fc918" /> <path d="  M500,500  h57.142857142857146  v-213.31477486215414  q0,-4 -4,-4  h-49.142857142857146  q-4,0 -4,4  Z" fill="#2fc918" /> <path d="  M571.4285714285714,500  h57.142857142857146  v-222.70022517444426  q0,-4 -4,-4  h-49.142857142857146  q-4,0 -4,4  Z" fill="#2fc918" /> <path d="  M642.8571428571429,500  h57.142857142857146  v-180.58637585030846  q0,-4 -4,-4  h-49.142857142857146  q-4,0 -4,4  Z" fill="#2fc918" /> <path d="  M714.2857142857143,500  h57.142857142857146  v-233.1450858010735  q0,-4 -4,-4  h-49.142857142857146  q-4,0 -4,4  Z" fill="#2fc918" /> <path d="  M785.7142857142858,500  h57.142857142857146  v-348.6515110602991  q0,-4 -4,-4  h-49.142857142857146  q-4,0 -4,4  Z" fill="#2fc918" /> <path d="  M857.1428571428571,500  h57.142857142857146  v-237.99539736559768  q0,-4 -4,-4  h-49.142857142857146  q-4,0 -4,4  Z" fill="#2fc918" /> <path d="  M928.5714285714286,500  h57.142857142857146  v-414.2196344865831  q0,-4 -4,-4  h-49.142857142857146  q-4,0 -4,4  Z" fill="#2fc918" /> </svg>