<svg   id="chart"   width="1000"   height="500"   viewBox="0 0 1000 500"   xmlns="http://www.w3.org/2000/svg" >     		     <path d="  M0,500  h57.142857142857146  v-482.2620883726448  q0,-4 -4,-4  h-49.142857142857146  q-4,0 -4,4  Z" fill="#2fc918" /> <path d="  M71.42857142857143,500  h57.142857142857146  v-464.4612794976856  q0,-4 -4,-4  h-49.142857142857146  q-4,0 -4,4  Z" fill="#2fc918" /> <path d="  M142.85714285714286,500  h57.142857142857146  v-442.72045160139675  q0,-4 -4,-4  h-49.142857142857146  q-4,0 -4,4  Z" fill="#2fc918" /> <path d="  M214.28571428571428,500  h57.142857142857146  v-396.6435729300497  q0,-4 -4,-4  h-49.142857142857146  q-4,0 -4,4  Z" fill="#2fc918" /> <path d="  M285.7142857142857,500  h57.142857142857146  v-403.2359043729829  q0,-4 -4,-4  h-49.142857142857146  q-4,0 -4,4  Z" fill="#2fc918" /> <path d="  M357.14285714285717,500  h57.142857142857146  v-339.0363116100375  q0,-4 -4,-4  h-49.142857142857146  q-4,0 -4,4  Z" fill="#2fc918" /> <path d="  M428.57142857142856,500  h57.142857142857146  v-373.44986473105985  q0,-4 -4,-4  h-49.142857142857146  q-4,0 -4,4  Z" fill="#2fc918" /> <path d="  M500,500  h57.142857142857146  v-271.5356415506093  q0,-4 -4,-4  h-49.142857142857146  q-4,0 -4,4  Z" fill="#2fc918" /> <path d="  M571.4285714285714,500  h57.142857142857146  v-279.2998262197511  q0,-4 -4,-4  h-49.142857142857146  q-4,0 -4,4  Z" fill="#2fc918" /> <path d="  M642.8571428571429,500  h57.142857142857146  v-161.464967509816  q0,-4 -4,-4  h-49.142857142857146  q-4,0 -4,4  Z" fill="#2fc918" /> <path d="  M714.2857142857143,500  h57.142857142857146  v-193.63668878993917  q0,-4 -4,-4  h-49.142857142857146  q-4,0 -4,4  Z" fill="#2fc918" /> <path d="  M785.7142857142858,500  h57.142857142857146  v-163.08588641106002  q0,-4 -4,-4  h-49.142857142857146  q-4,0 -4,4  Z" fill="#2fc918" /> <path d="  M857.1428571428571,500  h57.142857142857146  v-49.18622943768503  q0,-4 -4,-4  h-49.142857142857146  q-4,0 -4,4  Z" fill="#2fc918" /> <path d="  M928.5714285714286,500  h57.142857142857146  v-45.71637038831756  q0,-4 -4,-4  h-49.142857142857146  q-4,0 -4,4  Z" fill="#2fc918" /> </svg>