<svg   id="chart"   width="1000"   height="500"   viewBox="0 0 1000 500"   xmlns="http://www.w3.org/2000/svg" >     		     <path d="  M0,500  h57.142857142857146  v-481.8780197392184  q0,-4 -4,-4  h-49.142857142857146  q-4,0 -4,4  Z" fill="#c91836" /> <path d="  M71.42857142857143,500  h57.142857142857146  v-460.99447759844895  q0,-4 -4,-4  h-49.142857142857146  q-4,0 -4,4  Z" fill="#c91836" /> <path d="  M142.85714285714286,500  h57.142857142857146  v-431.54485658147723  q0,-4 -4,-4  h-49.142857142857146  q-4,0 -4,4  Z" fill="#c91836" /> <path d="  M214.28571428571428,500  h57.142857142857146  v-409.8806835998895  q0,-4 -4,-4  h-49.142857142857146  q-4,0 -4,4  Z" fill="#c91836" /> <path d="  M285.7142857142857,500  h57.142857142857146  v-356.55377816346873  q0,-4 -4,-4  h-49.142857142857146  q-4,0 -4,4  Z" fill="#c91836" /> <path d="  M357.14285714285717,500  h57.142857142857146  v-384.8712214197397  q0,-4 -4,-4  h-49.142857142857146  q-4,0 -4,4  Z" fill="#c91836" /> <path d="  M428.57142857142856,500  h57.142857142857146  v-273.4614374629982  q0,-4 -4,-4  h-49.142857142857146  q-4,0 -4,4  Z" fill="#c91836" /> <path d="  M500,500  h57.142857142857146  v-232.84340407614445  q0,-4 -4,-4  h-49.142857142857146  q-4,0 -4,4  Z" fill="#c91836" /> <path d="  M571.4285714285714,500  h57.142857142857146  v-325.9091780411047  q0,-4 -4,-4  h-49.142857142857146  q-4,0 -4,4  Z" fill="#c91836" /> <path d="  M642.8571428571429,500  h57.142857142857146  v-217.6049786123288  q0,-4 -4,-4  h-49.142857142857146  q-4,0 -4,4  Z" fill="#c91836" /> <path d="  M714.2857142857143,500  h57.142857142857146  v-196.47538119140944  q0,-4 -4,-4  h-49.142857142857146  q-4,0 -4,4  Z" fill="#c91836" /> <path d="  M785.7142857142858,500  h57.142857142857146  v-206.79054457361644  q0,-4 -4,-4  h-49.142857142857146  q-4,0 -4,4  Z" fill="#c91836" /> <path d="  M857.1428571428571,500  h57.142857142857146  v-139.05951610143632  q0,-4 -4,-4  h-49.142857142857146  q-4,0 -4,4  Z" fill="#c91836" /> <path d="  M928.5714285714286,500  h57.142857142857146  v-138.79888757733852  q0,-4 -4,-4  h-49.142857142857146  q-4,0 -4,4  Z" fill="#c91836" /> </svg>