<svg   id="chart"   width="1000"   height="500"   viewBox="0 0 1000 500"   xmlns="http://www.w3.org/2000/svg" >     		     <path d="  M0,500  h57.142857142857146  v-5.050195938440993  q0,-4 -4,-4  h-49.142857142857146  q-4,0 -4,4  Z" fill="#c91836" /> <path d="  M71.42857142857143,500  h57.142857142857146  v-30.78683948219708  q0,-4 -4,-4  h-49.142857142857146  q-4,0 -4,4  Z" fill="#c91836" /> <path d="  M142.85714285714286,500  h57.142857142857146  v-60.1427502086683  q0,-4 -4,-4  h-49.142857142857146  q-4,0 -4,4  Z" fill="#c91836" /> <path d="  M214.28571428571428,500  h57.142857142857146  v-67.11380486925884  q0,-4 -4,-4  h-49.142857142857146  q-4,0 -4,4  Z" fill="#c91836" /> <path d="  M285.7142857142857,500  h57.142857142857146  v-100.03019691394815  q0,-4 -4,-4  h-49.142857142857146  q-4,0 -4,4  Z" fill="#c91836" /> <path d="  M357.14285714285717,500  h57.142857142857146  v-96.92757298578204  q0,-4 -4,-4  h-49.142857142857146  q-4,0 -4,4  Z" fill="#c91836" /> <path d="  M428.57142857142856,500  h57.142857142857146  v-199.52202200394368  q0,-4 -4,-4  h-49.142857142857146  q-4,0 -4,4  Z" fill="#c91836" /> <path d="  M500,500  h57.142857142857146  v-136.00372764418705  q0,-4 -4,-4  h-49.142857142857146  q-4,0 -4,4  Z" fill="#c91836" /> <path d="  M571.4285714285714,500  h57.142857142857146  v-197.40742895803317  q0,-4 -4,-4  h-49.142857142857146  q-4,0 -4,4  Z" fill="#c91836" /> <path d="  M642.8571428571429,500  h57.142857142857146  v-311.0098782875914  q0,-4 -4,-4  h-49.142857142857146  q-4,0 -4,4  Z" fill="#c91836" /> <path d="  M714.2857142857143,500  h57.142857142857146  v-336.2637348778011  q0,-4 -4,-4  h-49.142857142857146  q-4,0 -4,4  Z" fill="#c91836" /> <path d="  M785.7142857142858,500  h57.142857142857146  v-320.65835509241924  q0,-4 -4,-4  h-49.142857142857146  q-4,0 -4,4  Z" fill="#c91836" /> <path d="  M857.1428571428571,500  h57.142857142857146  v-367.580717284217  q0,-4 -4,-4  h-49.142857142857146  q-4,0 -4,4  Z" fill="#c91836" /> <path d="  M928.5714285714286,500  h57.142857142857146  v-452.6956025539746  q0,-4 -4,-4  h-49.142857142857146  q-4,0 -4,4  Z" fill="#c91836" /> </svg>